<svg width="136" height="56" viewBox="0 0 136 56" fill="none" xmlns="http://www.w3.org/2000/svg">
<g clip-path="url(#clip0_1_1398)">
<path d="M53.9521 18.7312C53.9521 17.5593 54.8955 16.6664 56.0053 16.6664C57.1152 16.6664 58.0585 17.6151 58.0585 18.7312C58.0585 19.8472 57.1152 20.7959 56.0053 20.7959C54.84 20.7959 53.9521 19.8472 53.9521 18.7312Z" fill="#003479"/>
<path d="M86.3594 32.4592C86.3594 31.2873 87.3027 30.3945 88.4126 30.3945C89.5224 30.3945 90.4657 31.3431 90.4657 32.4592C90.4657 33.5753 89.5224 34.5239 88.4126 34.5239C87.2472 34.5239 86.3594 33.6311 86.3594 32.4592Z" fill="#009FE3"/>
<path d="M20.269 31.5663C18.4933 31.5663 17.2725 30.1712 17.2725 28.1623C17.2725 26.1534 18.4933 24.7583 20.269 24.7583C22.0448 24.7583 23.2656 26.1534 23.2656 28.1623C23.2656 30.2271 22.0448 31.5663 20.269 31.5663ZM20.269 21.6891C16.5511 21.6891 13.832 24.4235 13.832 28.1065C13.832 31.7896 16.5511 34.5239 20.269 34.5239C24.0425 34.5239 26.7616 31.7896 26.7616 28.1065C26.7616 24.4235 23.987 21.6891 20.269 21.6891Z" fill="#003479"/>
<path d="M49.957 28.4968C49.7906 28.2178 49.6241 27.9946 49.4576 27.8271L49.3466 27.7155L49.4576 27.6039C49.6241 27.4365 49.7906 27.2133 49.957 26.9343L53.2311 22.0236H49.2357L46.7385 25.874C46.5721 26.0972 46.2946 26.2088 45.9062 26.2088H45.3512V18.8986C45.3512 17.4477 44.4634 17.2245 43.4646 17.2245H41.7998V34.4678H45.3512V29.278H45.6842C46.0727 29.278 46.3501 29.3338 46.5166 29.5571L48.4588 33.2959C49.0137 34.3004 49.5686 34.4678 50.5675 34.4678H53.2865L51.2334 31.1196L49.957 28.4968Z" fill="#003479"/>
<path d="M67.2147 21.6888C65.3835 21.6888 64.2737 22.47 63.6078 23.1955L63.3858 23.4187L63.3303 23.1396C63.1638 22.4142 62.4979 22.0236 61.5546 22.0236H59.9453V34.4678H63.4968V28.6642C63.4968 28.1062 63.5523 27.6039 63.7188 27.1575C64.1072 25.8182 65.217 24.9812 66.5488 24.9812C67.6587 24.9812 68.1026 25.5392 68.1026 27.1017V32.5146C68.1026 33.7981 68.713 34.412 69.9893 34.412H71.6541V26.4879C71.5986 23.3629 70.1003 21.6888 67.2147 21.6888Z" fill="#003479"/>
<path d="M56.0612 21.9679H54.3965V31.5661V34.4121H56.1722H56.2277H57.0601H57.8925V23.8652C57.8925 22.5818 57.282 21.9679 56.0612 21.9679Z" fill="#003479"/>
<path d="M34.0864 31.5662C32.3107 31.5662 31.0899 30.1711 31.0899 28.1622C31.0899 26.1533 32.3107 24.7582 34.0864 24.7582C35.8622 24.7582 37.083 26.1533 37.083 28.1622C37.1385 30.2269 35.9177 31.5662 34.0864 31.5662ZM34.0864 21.689C30.3685 21.689 27.6494 24.4233 27.6494 28.1064C27.6494 31.7894 30.3685 34.5796 34.0864 34.5796C37.8599 34.5796 40.579 31.8452 40.579 28.1622C40.579 24.4791 37.8599 21.689 34.0864 21.689Z" fill="#003479"/>
<path d="M109.721 31.566C107.945 31.566 106.725 30.1709 106.725 28.162C106.725 26.153 107.945 24.7579 109.721 24.7579C111.497 24.7579 112.718 26.153 112.718 28.162C112.718 30.2267 111.497 31.566 109.721 31.566ZM109.721 21.6887C106.003 21.6887 103.284 24.4231 103.284 28.1061C103.284 31.7892 106.003 34.5236 109.721 34.5236C113.439 34.5794 116.214 31.9008 116.214 28.162C116.214 24.4231 113.439 21.6887 109.721 21.6887Z" fill="#009FE3"/>
<path d="M79.0344 31.0638C77.0922 31.0638 76.4263 29.3896 76.4263 27.7713C76.4263 27.0459 76.5928 24.8138 78.8679 24.8138C79.9778 24.8138 81.476 25.1486 81.476 27.883C81.476 30.5057 80.1442 31.0638 79.0344 31.0638ZM83.3073 21.912C82.6414 21.912 82.1419 22.191 81.8645 22.6932L81.7535 22.8606L81.587 22.6932C81.0321 22.191 79.9778 21.633 78.313 21.633C75.039 21.633 72.8193 24.1441 72.8193 27.8271C72.8193 31.5102 75.0945 34.133 78.424 34.133C79.5338 34.133 80.4217 33.8539 81.1431 33.3517L81.4205 33.1285V33.4633C81.4205 35.1374 80.3662 36.0303 78.424 36.0303C77.4807 36.0303 76.6483 35.8071 76.0378 35.5838C75.3165 35.3606 74.8725 35.528 74.5396 36.3093L74.2621 36.9789L73.8737 37.9834L74.0956 38.095C75.3165 38.7646 76.9257 39.1553 78.424 39.1553C81.4206 39.1553 84.9165 37.5928 84.9165 33.2401V21.8004L83.3073 21.912Z" fill="#003479"/>
<path d="M7.1176 31.4542H4.23203V27.9943C4.23203 27.2689 4.50947 26.8783 5.11988 26.7667H7.06209C8.44938 26.7667 9.33726 27.6595 9.33726 29.1104C9.39275 30.5613 8.56038 31.4542 7.1176 31.4542ZM4.23203 22.135V21.2421C4.23203 20.4609 4.56496 20.0702 5.28635 20.0144H6.72915C8.00546 20.0144 8.72683 20.7957 8.72683 22.0234C8.72683 22.972 8.22741 24.1439 6.78463 24.1439H4.17651L4.23203 22.135ZM10.78 25.5948L10.2806 25.3158L10.7246 24.9252C11.224 24.4787 12.1118 23.4185 12.1118 21.6885C12.1118 18.9542 10.0031 17.2243 6.78463 17.2243H3.12219H2.67827C1.73491 17.2801 0.958008 18.0613 0.958008 19.01V34.356H2.67827H6.89562C10.5026 34.356 12.8332 32.4028 12.8332 29.3336C12.7777 27.7153 12.0563 26.2644 10.78 25.5948Z" fill="#003479"/>
<path d="M131.919 21.7447C130.476 21.7447 129.033 22.4143 128.145 23.5862L127.868 23.921L127.646 23.5304C126.98 22.3585 125.87 21.7447 124.316 21.7447C122.652 21.7447 121.597 22.6376 121.042 23.1956L120.709 23.5862L120.598 23.084C120.432 22.4143 119.822 22.0237 118.878 22.0237H117.38V34.4121H120.765V28.9434C120.765 28.4411 120.82 27.9947 120.931 27.4925C121.264 26.1532 122.152 24.7581 123.595 24.8697C124.538 24.9813 124.982 25.6509 124.982 27.046V34.4121H128.367V28.9434C128.367 28.3295 128.423 27.8831 128.534 27.4367C128.811 26.1532 129.755 24.8697 131.142 24.8697C132.196 24.8697 132.585 25.4835 132.585 27.046V32.5706C132.585 33.7983 133.14 34.3563 134.36 34.3563H135.97V26.4322C136.025 23.3072 134.693 21.7447 131.919 21.7447Z" fill="#009FE3"/>
<path d="M101.287 30.115C101.287 30.115 99.8445 31.6775 97.9023 31.6775C96.182 31.6775 94.4063 30.6173 94.4063 28.2177C94.4063 26.153 95.7936 24.7021 97.7358 24.7021C98.3462 24.7021 99.0676 24.9253 99.1786 25.3159V25.3717C99.456 26.2646 100.233 26.2646 100.399 26.2646H102.231V24.6463C102.231 22.5257 99.5115 21.7445 97.6803 21.7445C93.7959 21.7445 90.9658 24.4789 90.9658 28.2177C90.9658 31.9565 93.7404 34.6909 97.6248 34.6909C100.954 34.6909 102.786 32.4588 102.786 32.4588L102.897 32.3472L101.454 29.8918L101.287 30.115Z" fill="#009FE3"/>
</g>
<defs>
<clipPath id="clip0_1_1398">
<rect width="135" height="55" fill="white" transform="translate(0.375 0.166504)"/>
</clipPath>
</defs>
</svg>
