<svg width="136" height="55" viewBox="0 0 136 55" fill="none" xmlns="http://www.w3.org/2000/svg">
<g clip-path="url(#clip0_1_1808)">
<path d="M53.9521 18.5647C53.9521 17.3928 54.8955 16.4999 56.0053 16.4999C57.1152 16.4999 58.0585 17.4486 58.0585 18.5647C58.0585 19.6807 57.1152 20.6294 56.0053 20.6294C54.84 20.6294 53.9521 19.6807 53.9521 18.5647Z" fill="#003479"/>
<path d="M86.3594 32.2927C86.3594 31.1208 87.3027 30.228 88.4126 30.228C89.5224 30.228 90.4657 31.1766 90.4657 32.2927C90.4657 33.4088 89.5224 34.3574 88.4126 34.3574C87.2472 34.3574 86.3594 33.4646 86.3594 32.2927Z" fill="#009FE3"/>
<path d="M20.269 31.3998C18.4933 31.3998 17.2725 30.0047 17.2725 27.9958C17.2725 25.9869 18.4933 24.5918 20.269 24.5918C22.0448 24.5918 23.2656 25.9869 23.2656 27.9958C23.2656 30.0605 22.0448 31.3998 20.269 31.3998ZM20.269 21.5226C16.5511 21.5226 13.832 24.257 13.832 27.94C13.832 31.623 16.5511 34.3574 20.269 34.3574C24.0425 34.3574 26.7616 31.623 26.7616 27.94C26.7616 24.257 23.987 21.5226 20.269 21.5226Z" fill="#003479"/>
<path d="M49.957 28.3303C49.7906 28.0513 49.6241 27.8281 49.4576 27.6606L49.3466 27.549L49.4576 27.4374C49.6241 27.27 49.7906 27.0468 49.957 26.7678L53.2311 21.8571H49.2357L46.7385 25.7075C46.5721 25.9307 46.2946 26.0423 45.9062 26.0423H45.3512V18.7321C45.3512 17.2812 44.4634 17.058 43.4646 17.058H41.7998V34.3013H45.3512V29.1115H45.6842C46.0727 29.1115 46.3501 29.1673 46.5166 29.3906L48.4588 33.1294C49.0137 34.1339 49.5686 34.3013 50.5675 34.3013H53.2865L51.2334 30.9531L49.957 28.3303Z" fill="#003479"/>
<path d="M67.2147 21.5223C65.3835 21.5223 64.2737 22.3035 63.6078 23.0289L63.3858 23.2522L63.3303 22.9731C63.1638 22.2477 62.4979 21.8571 61.5546 21.8571H59.9453V34.3013H63.4968V28.4977C63.4968 27.9397 63.5523 27.4374 63.7188 26.991C64.1072 25.6517 65.217 24.8147 66.5488 24.8147C67.6587 24.8147 68.1026 25.3727 68.1026 26.9352V32.3481C68.1026 33.6316 68.713 34.2455 69.9893 34.2455H71.6541V26.3214C71.5986 23.1964 70.1003 21.5223 67.2147 21.5223Z" fill="#003479"/>
<path d="M56.0612 21.8014H54.3965V31.3996V34.2456H56.1722H56.2277H57.0601H57.8925V23.6987C57.8925 22.4152 57.282 21.8014 56.0612 21.8014Z" fill="#003479"/>
<path d="M34.0864 31.3997C32.3107 31.3997 31.0899 30.0046 31.0899 27.9957C31.0899 25.9867 32.3107 24.5917 34.0864 24.5917C35.8622 24.5917 37.083 25.9867 37.083 27.9957C37.1385 30.0604 35.9177 31.3997 34.0864 31.3997ZM34.0864 21.5225C30.3685 21.5225 27.6494 24.2568 27.6494 27.9399C27.6494 31.6229 30.3685 34.4131 34.0864 34.4131C37.8599 34.4131 40.579 31.6787 40.579 27.9957C40.579 24.3126 37.8599 21.5225 34.0864 21.5225Z" fill="#003479"/>
<path d="M109.721 31.3995C107.945 31.3995 106.725 30.0044 106.725 27.9954C106.725 25.9865 107.945 24.5914 109.721 24.5914C111.497 24.5914 112.718 25.9865 112.718 27.9954C112.718 30.0602 111.497 31.3995 109.721 31.3995ZM109.721 21.5222C106.003 21.5222 103.284 24.2566 103.284 27.9396C103.284 31.6227 106.003 34.3571 109.721 34.3571C113.439 34.4129 116.214 31.7343 116.214 27.9954C116.214 24.2566 113.439 21.5222 109.721 21.5222Z" fill="#009FE3"/>
<path d="M79.0344 30.8973C77.0922 30.8973 76.4263 29.2231 76.4263 27.6048C76.4263 26.8794 76.5928 24.6473 78.8679 24.6473C79.9778 24.6473 81.476 24.9821 81.476 27.7164C81.476 30.3392 80.1442 30.8973 79.0344 30.8973ZM83.3073 21.7455C82.6414 21.7455 82.1419 22.0245 81.8645 22.5267L81.7535 22.6941L81.587 22.5267C81.0321 22.0245 79.9778 21.4664 78.313 21.4664C75.039 21.4664 72.8193 23.9776 72.8193 27.6606C72.8193 31.3437 75.0945 33.9664 78.424 33.9664C79.5338 33.9664 80.4217 33.6874 81.1431 33.1852L81.4205 32.962V33.2968C81.4205 34.9709 80.3662 35.8638 78.424 35.8638C77.4807 35.8638 76.6483 35.6406 76.0378 35.4173C75.3165 35.1941 74.8725 35.3615 74.5396 36.1428L74.2621 36.8124L73.8737 37.8169L74.0956 37.9285C75.3165 38.5981 76.9257 38.9888 78.424 38.9888C81.4206 38.9888 84.9165 37.4263 84.9165 33.0736V21.6339L83.3073 21.7455Z" fill="#003479"/>
<path d="M7.1176 31.2877H4.23203V27.8278C4.23203 27.1024 4.50947 26.7118 5.11988 26.6002H7.06209C8.44938 26.6002 9.33726 27.493 9.33726 28.9439C9.39275 30.3948 8.56038 31.2877 7.1176 31.2877ZM4.23203 21.9685V21.0756C4.23203 20.2944 4.56496 19.9037 5.28635 19.8479H6.72915C8.00546 19.8479 8.72683 20.6292 8.72683 21.8569C8.72683 22.8055 8.22741 23.9774 6.78463 23.9774H4.17651L4.23203 21.9685ZM10.78 25.4283L10.2806 25.1493L10.7246 24.7587C11.224 24.3122 12.1118 23.252 12.1118 21.522C12.1118 18.7877 10.0031 17.0578 6.78463 17.0578H3.12219H2.67827C1.73491 17.1136 0.958008 17.8948 0.958008 18.8435V34.1895H2.67827H6.89562C10.5026 34.1895 12.8332 32.2363 12.8332 29.1671C12.7777 27.5488 12.0563 26.0979 10.78 25.4283Z" fill="#003479"/>
<path d="M131.919 21.5782C130.476 21.5782 129.033 22.2478 128.145 23.4197L127.868 23.7545L127.646 23.3639C126.98 22.192 125.87 21.5782 124.316 21.5782C122.652 21.5782 121.597 22.4711 121.042 23.0291L120.709 23.4197L120.598 22.9175C120.432 22.2478 119.822 21.8572 118.878 21.8572H117.38V34.2456H120.765V28.7769C120.765 28.2746 120.82 27.8282 120.931 27.326C121.264 25.9867 122.152 24.5916 123.595 24.7032C124.538 24.8148 124.982 25.4844 124.982 26.8795V34.2456H128.367V28.7769C128.367 28.163 128.423 27.7166 128.534 27.2702C128.811 25.9867 129.755 24.7032 131.142 24.7032C132.196 24.7032 132.585 25.317 132.585 26.8795V32.4041C132.585 33.6318 133.14 34.1898 134.36 34.1898H135.97V26.2657C136.025 23.1407 134.693 21.5782 131.919 21.5782Z" fill="#009FE3"/>
<path d="M101.287 29.9485C101.287 29.9485 99.8445 31.511 97.9023 31.511C96.182 31.511 94.4063 30.4508 94.4063 28.0512C94.4063 25.9865 95.7936 24.5356 97.7358 24.5356C98.3462 24.5356 99.0676 24.7588 99.1786 25.1494V25.2052C99.456 26.0981 100.233 26.0981 100.399 26.0981H102.231V24.4798C102.231 22.3592 99.5115 21.578 97.6803 21.578C93.7959 21.578 90.9658 24.3124 90.9658 28.0512C90.9658 31.79 93.7404 34.5244 97.6248 34.5244C100.954 34.5244 102.786 32.2923 102.786 32.2923L102.897 32.1807L101.454 29.7253L101.287 29.9485Z" fill="#009FE3"/>
</g>
<defs>
<clipPath id="clip0_1_1808">
<rect width="135" height="55" fill="white" transform="translate(0.375)"/>
</clipPath>
</defs>
</svg>
