<svg width="50" height="51" viewBox="0 0 50 51" fill="none" xmlns="http://www.w3.org/2000/svg">
<rect y="0.5" width="50" height="50" rx="25" fill="#7AB342"/>
<path d="M23.4766 15.9609C22.2891 15.9609 21.1797 16.1875 20.1484 16.6406C19.1172 17.0781 18.2148 17.6836 17.4414 18.457C16.668 19.2305 16.0547 20.1328 15.6016 21.1641C15.1641 22.2109 14.9453 23.3203 14.9453 24.4922C14.9453 25.6641 15.1641 26.7656 15.6016 27.7969C16.0547 28.8281 16.668 29.7305 17.4414 30.5039C18.2148 31.2773 19.1172 31.8906 20.1484 32.3438C21.1797 32.7969 22.2891 33.0234 23.4766 33.0234C24.4766 33.0234 25.4258 32.8555 26.3242 32.5195C27.2227 32.1836 28.0391 31.7266 28.7734 31.1484L32.3359 34.6875C32.4141 34.7812 32.5117 34.8516 32.6289 34.8984C32.7461 34.9453 32.8672 34.9688 32.9922 34.9688C33.1172 34.9688 33.2383 34.9414 33.3555 34.8867C33.4727 34.832 33.5703 34.7656 33.6484 34.6875C33.7422 34.5938 33.8125 34.4922 33.8594 34.3828C33.9062 34.2734 33.9297 34.1562 33.9297 34.0312C33.9297 33.9062 33.9062 33.7852 33.8594 33.668C33.8125 33.5508 33.75 33.4453 33.6719 33.3516L30.1094 29.8125C30.7031 29.0781 31.1641 28.2578 31.4922 27.3516C31.8203 26.4453 31.9844 25.4922 31.9844 24.4922C31.9844 23.3203 31.7656 22.2109 31.3281 21.1641C30.875 20.1328 30.2617 19.2305 29.4883 18.457C28.7148 17.6836 27.8125 17.0781 26.7812 16.6406C25.75 16.1875 24.6484 15.9609 23.4766 15.9609ZM23.4766 17.8594C24.3828 17.8594 25.2422 18.0312 26.0547 18.375C26.8516 18.7188 27.5508 19.1914 28.1523 19.793C28.7539 20.3945 29.2266 21.0938 29.5703 21.8906C29.9141 22.7031 30.0859 23.5703 30.0859 24.4922C30.0859 25.4141 29.9141 26.2734 29.5703 27.0703C29.2266 27.8828 28.7539 28.5859 28.1523 29.1797C27.5508 29.7734 26.8516 30.25 26.0547 30.6094C25.2422 30.9531 24.3828 31.125 23.4766 31.125C22.5547 31.125 21.6875 30.9531 20.875 30.6094C20.0781 30.25 19.3789 29.7734 18.7773 29.1797C18.1758 28.5859 17.7031 27.8828 17.3594 27.0703C17.0156 26.2734 16.8438 25.4141 16.8438 24.4922C16.8438 23.5703 17.0156 22.7031 17.3594 21.8906C17.7031 21.0938 18.1758 20.3945 18.7773 19.793C19.3789 19.1914 20.0781 18.7188 20.875 18.375C21.6875 18.0312 22.5547 17.8594 23.4766 17.8594Z" fill="white"/>
</svg>
