<svg width="32" height="32" viewBox="0 0 32 32" fill="none" xmlns="http://www.w3.org/2000/svg">
<path d="M23.6085 16.3908C23.4848 16.2668 23.3378 16.1685 23.1761 16.1014C23.0143 16.0344 22.8409 15.9998 22.6658 15.9998C22.4907 15.9998 22.3173 16.0344 22.1556 16.1014C21.9938 16.1685 21.8469 16.2668 21.7231 16.3908L19.5978 18.5161C18.6125 18.2228 16.7738 17.5561 15.6085 16.3908C14.4431 15.2254 13.7765 13.3868 13.4831 12.4014L15.6085 10.2761C15.7324 10.1524 15.8307 10.0054 15.8978 9.8437C15.9649 9.68194 15.9994 9.50855 15.9994 9.33344C15.9994 9.15833 15.9649 8.98493 15.8978 8.82318C15.8307 8.66143 15.7324 8.51449 15.6085 8.39077L10.2751 3.05744C10.1514 2.93351 10.0045 2.83519 9.84273 2.76811C9.68098 2.70103 9.50759 2.6665 9.33248 2.6665C9.15736 2.6665 8.98397 2.70103 8.82222 2.76811C8.66047 2.83519 8.51353 2.93351 8.38981 3.05744L4.77381 6.67344C4.26714 7.18011 3.98181 7.87611 3.99248 8.58677C4.02314 10.4854 4.52581 17.0801 9.72314 22.2774C14.9205 27.4748 21.5151 27.9761 23.4151 28.0081H23.4525C24.1565 28.0081 24.8218 27.7308 25.3258 27.2268L28.9418 23.6108C29.0657 23.4871 29.1641 23.3401 29.2311 23.1784C29.2982 23.0166 29.3327 22.8432 29.3327 22.6681C29.3327 22.493 29.2982 22.3196 29.2311 22.1578C29.1641 21.9961 29.0657 21.8492 28.9418 21.7254L23.6085 16.3908ZM23.4391 25.3401C21.7751 25.3121 16.0818 24.8654 11.6085 20.3908C7.12048 15.9028 6.68581 10.1894 6.65914 8.55877L9.33248 5.88544L12.7805 9.33344L11.0565 11.0574C10.8998 11.214 10.7845 11.4072 10.7212 11.6195C10.6579 11.8318 10.6485 12.0566 10.6938 12.2734C10.7258 12.4268 11.5085 16.0628 13.7218 18.2761C15.9351 20.4894 19.5711 21.2721 19.7245 21.3041C19.9412 21.3507 20.1662 21.3421 20.3787 21.2789C20.5912 21.2158 20.7844 21.1002 20.9405 20.9428L22.6658 19.2188L26.1138 22.6668L23.4391 25.3401Z" fill="#7AB342"/>
</svg>
