<svg width="24" height="25" viewBox="0 0 24 25" fill="none" xmlns="http://www.w3.org/2000/svg">
<path fill-rule="evenodd" clip-rule="evenodd" d="M16 3.9082H8C5.23858 3.9082 3 6.14678 3 8.9082V16.9082C3 19.6696 5.23858 21.9082 8 21.9082H16C18.7614 21.9082 21 19.6696 21 16.9082V8.9082C21 6.14678 18.7614 3.9082 16 3.9082ZM19.25 16.9082C19.2445 18.7008 17.7926 20.1527 16 20.1582H8C6.20735 20.1527 4.75549 18.7008 4.75 16.9082V8.9082C4.75549 7.11555 6.20735 5.66369 8 5.6582H16C17.7926 5.66369 19.2445 7.11555 19.25 8.9082V16.9082ZM16.75 9.1582C17.3023 9.1582 17.75 8.71048 17.75 8.1582C17.75 7.60592 17.3023 7.1582 16.75 7.1582C16.1977 7.1582 15.75 7.60592 15.75 8.1582C15.75 8.71048 16.1977 9.1582 16.75 9.1582ZM12 8.4082C9.51472 8.4082 7.5 10.4229 7.5 12.9082C7.5 15.3935 9.51472 17.4082 12 17.4082C14.4853 17.4082 16.5 15.3935 16.5 12.9082C16.5027 11.7139 16.0294 10.5678 15.1849 9.72328C14.3404 8.87879 13.1943 8.40554 12 8.4082ZM9.25 12.9082C9.25 14.427 10.4812 15.6582 12 15.6582C13.5188 15.6582 14.75 14.427 14.75 12.9082C14.75 11.3894 13.5188 10.1582 12 10.1582C10.4812 10.1582 9.25 11.3894 9.25 12.9082Z" fill="white"/>
</svg>
