<svg width="24" height="25" viewBox="0 0 24 25" fill="none" xmlns="http://www.w3.org/2000/svg">
<path d="M21.5933 7.86902C21.4794 7.44642 21.2568 7.06103 20.9477 6.75119C20.6386 6.44135 20.2537 6.21788 19.8313 6.10302C18.2653 5.67302 12.0003 5.66602 12.0003 5.66602C12.0003 5.66602 5.73633 5.65902 4.16933 6.07002C3.74725 6.19017 3.36315 6.4168 3.0539 6.72816C2.74464 7.03951 2.52062 7.42514 2.40333 7.84802C1.99033 9.41402 1.98633 12.662 1.98633 12.662C1.98633 12.662 1.98233 15.926 2.39233 17.476C2.62233 18.333 3.29733 19.01 4.15533 19.241C5.73733 19.671 11.9853 19.678 11.9853 19.678C11.9853 19.678 18.2503 19.685 19.8163 19.275C20.2388 19.1604 20.6241 18.9374 20.934 18.6282C21.2439 18.319 21.4677 17.9343 21.5833 17.512C21.9973 15.947 22.0003 12.7 22.0003 12.7C22.0003 12.7 22.0203 9.43502 21.5933 7.86902ZM9.99633 15.671L10.0013 9.67102L15.2083 12.676L9.99633 15.671Z" fill="white"/>
</svg>
