<svg width="24" height="25" viewBox="0 0 24 25" fill="none" xmlns="http://www.w3.org/2000/svg">
<path d="M21.5933 7.87C21.4794 7.4474 21.2568 7.062 20.9477 6.75217C20.6386 6.44233 20.2537 6.21886 19.8313 6.104C18.2653 5.674 12.0003 5.667 12.0003 5.667C12.0003 5.667 5.73633 5.66 4.16933 6.071C3.74725 6.19115 3.36315 6.41778 3.0539 6.72913C2.74464 7.04049 2.52062 7.42612 2.40333 7.849C1.99033 9.415 1.98633 12.663 1.98633 12.663C1.98633 12.663 1.98233 15.927 2.39233 17.477C2.62233 18.334 3.29733 19.011 4.15533 19.242C5.73733 19.672 11.9853 19.679 11.9853 19.679C11.9853 19.679 18.2503 19.686 19.8163 19.276C20.2388 19.1613 20.6241 18.9384 20.934 18.6292C21.2439 18.32 21.4677 17.9352 21.5833 17.513C21.9973 15.948 22.0003 12.701 22.0003 12.701C22.0003 12.701 22.0203 9.436 21.5933 7.87ZM9.99633 15.672L10.0013 9.672L15.2083 12.677L9.99633 15.672Z" fill="white"/>
</svg>
