<svg width="24" height="25" viewBox="0 0 24 25" fill="none" xmlns="http://www.w3.org/2000/svg">
<path fill-rule="evenodd" clip-rule="evenodd" d="M16 3.91016H8C5.23858 3.91016 3 6.14874 3 8.91016V16.9102C3 19.6716 5.23858 21.9102 8 21.9102H16C18.7614 21.9102 21 19.6716 21 16.9102V8.91016C21 6.14874 18.7614 3.91016 16 3.91016ZM19.25 16.9102C19.2445 18.7028 17.7926 20.1547 16 20.1602H8C6.20735 20.1547 4.75549 18.7028 4.75 16.9102V8.91016C4.75549 7.11751 6.20735 5.66565 8 5.66016H16C17.7926 5.66565 19.2445 7.11751 19.25 8.91016V16.9102ZM16.75 9.16016C17.3023 9.16016 17.75 8.71244 17.75 8.16016C17.75 7.60788 17.3023 7.16016 16.75 7.16016C16.1977 7.16016 15.75 7.60788 15.75 8.16016C15.75 8.71244 16.1977 9.16016 16.75 9.16016ZM12 8.41016C9.51472 8.41016 7.5 10.4249 7.5 12.9102C7.5 15.3955 9.51472 17.4102 12 17.4102C14.4853 17.4102 16.5 15.3955 16.5 12.9102C16.5027 11.7159 16.0294 10.5697 15.1849 9.72524C14.3404 8.88075 13.1943 8.4075 12 8.41016ZM9.25 12.9102C9.25 14.429 10.4812 15.6602 12 15.6602C13.5188 15.6602 14.75 14.429 14.75 12.9102C14.75 11.3914 13.5188 10.1602 12 10.1602C10.4812 10.1602 9.25 11.3914 9.25 12.9102Z" fill="white"/>
</svg>
