<svg width="24" height="25" viewBox="0 0 24 25" fill="none" xmlns="http://www.w3.org/2000/svg">
<path fill-rule="evenodd" clip-rule="evenodd" d="M4.5 3.9082C3.67157 3.9082 3 4.57977 3 5.4082V20.4082C3 21.2366 3.67157 21.9082 4.5 21.9082H19.5C20.3284 21.9082 21 21.2366 21 20.4082V5.4082C21 4.57977 20.3284 3.9082 19.5 3.9082H4.5ZM8.52076 7.91092C8.52639 8.86717 7.81061 9.45639 6.96123 9.45217C6.16107 9.44795 5.46357 8.81092 5.46779 7.91233C5.47201 7.06717 6.13998 6.38795 7.00764 6.40764C7.88795 6.42733 8.52639 7.0728 8.52076 7.91092ZM12.2797 10.67H9.75971H9.7583V19.2298H12.4217V19.0301C12.4217 18.6502 12.4214 18.2702 12.4211 17.8901C12.4203 16.8763 12.4194 15.8614 12.4246 14.8479C12.426 14.6018 12.4372 14.3459 12.5005 14.111C12.7381 13.2335 13.5271 12.6668 14.4074 12.8061C14.9727 12.8946 15.3467 13.2223 15.5042 13.7553C15.6013 14.0885 15.6449 14.4471 15.6491 14.7945C15.6605 15.8421 15.6589 16.8897 15.6573 17.9374C15.6567 18.3072 15.6561 18.6772 15.6561 19.047V19.2284H18.328V19.0231C18.328 18.5711 18.3278 18.1192 18.3275 17.6673C18.327 16.5378 18.3264 15.4083 18.3294 14.2784C18.3308 13.7679 18.276 13.2645 18.1508 12.7709C17.9638 12.0368 17.5771 11.4293 16.9485 10.9906C16.5027 10.6784 16.0133 10.4773 15.4663 10.4548C15.404 10.4522 15.3412 10.4488 15.2781 10.4454C14.9984 10.4303 14.7141 10.4149 14.4467 10.4689C13.6817 10.6221 13.0096 10.9723 12.5019 11.5896C12.4429 11.6604 12.3852 11.7323 12.2991 11.8396L12.2797 11.8639V10.67ZM5.68164 19.2326H8.33242V10.6755H5.68164V19.2326Z" fill="white"/>
</svg>
