<svg width="32" height="32" viewBox="0 0 32 32" fill="none" xmlns="http://www.w3.org/2000/svg">
<path d="M26.668 5.3335H5.33464C3.86397 5.3335 2.66797 6.5295 2.66797 8.00016V24.0002C2.66797 25.4708 3.86397 26.6668 5.33464 26.6668H26.668C28.1386 26.6668 29.3346 25.4708 29.3346 24.0002V8.00016C29.3346 6.5295 28.1386 5.3335 26.668 5.3335ZM26.668 8.00016V8.6815L16.0013 16.9788L5.33464 8.68283V8.00016H26.668ZM5.33464 24.0002V12.0588L15.1826 19.7188C15.4161 19.9022 15.7044 20.0019 16.0013 20.0019C16.2982 20.0019 16.5865 19.9022 16.82 19.7188L26.668 12.0588L26.6706 24.0002H5.33464Z" fill="#7AB342"/>
</svg>
