<svg width="24" height="24" viewBox="0 0 24 24" fill="none" xmlns="http://www.w3.org/2000/svg">
<path d="M4.22172 19.7777C4.68559 20.2423 5.23669 20.6106 5.84334 20.8615C6.44999 21.1123 7.10023 21.2409 7.75672 21.2397C8.41335 21.2409 9.06374 21.1123 9.67054 20.8614C10.2774 20.6105 10.8286 20.2422 11.2927 19.7777L14.1207 16.9487L12.7067 15.5347L9.87872 18.3637C9.31519 18.9247 8.55239 19.2397 7.75722 19.2397C6.96205 19.2397 6.19925 18.9247 5.63572 18.3637C5.07422 17.8004 4.75892 17.0376 4.75892 16.2422C4.75892 15.4469 5.07422 14.684 5.63572 14.1207L8.46472 11.2927L7.05072 9.87872L4.22172 12.7067C3.28552 13.6452 2.75977 14.9166 2.75977 16.2422C2.75977 17.5678 3.28552 18.8393 4.22172 19.7777ZM19.7777 11.2927C20.7134 10.354 21.2388 9.08264 21.2388 7.75722C21.2388 6.4318 20.7134 5.16043 19.7777 4.22172C18.8393 3.28552 17.5678 2.75977 16.2422 2.75977C14.9166 2.75977 13.6452 3.28552 12.7067 4.22172L9.87872 7.05072L11.2927 8.46472L14.1207 5.63572C14.6842 5.07471 15.447 4.75975 16.2422 4.75975C17.0374 4.75975 17.8002 5.07471 18.3637 5.63572C18.9252 6.19899 19.2405 6.96189 19.2405 7.75722C19.2405 8.55255 18.9252 9.31545 18.3637 9.87872L15.5347 12.7067L16.9487 14.1207L19.7777 11.2927Z" fill="black"/>
<path d="M8.46371 16.9498L7.04871 15.5358L15.5357 7.0498L16.9497 8.4648L8.46371 16.9498Z" fill="black"/>
</svg>
