<svg width="24" height="25" viewBox="0 0 24 25" fill="none" xmlns="http://www.w3.org/2000/svg">
<path fill-rule="evenodd" clip-rule="evenodd" d="M4.5 3.91016C3.67157 3.91016 3 4.58173 3 5.41016V20.4102C3 21.2386 3.67157 21.9102 4.5 21.9102H19.5C20.3284 21.9102 21 21.2386 21 20.4102V5.41016C21 4.58173 20.3284 3.91016 19.5 3.91016H4.5ZM8.52076 7.91288C8.52639 8.86913 7.81061 9.45835 6.96123 9.45413C6.16107 9.44991 5.46357 8.81288 5.46779 7.91429C5.47201 7.06913 6.13998 6.38991 7.00764 6.4096C7.88795 6.42929 8.52639 7.07476 8.52076 7.91288ZM12.2797 10.6719H9.75971H9.7583V19.2318H12.4217V19.0321C12.4217 18.6522 12.4214 18.2722 12.4211 17.8921C12.4203 16.8783 12.4194 15.8634 12.4246 14.8499C12.426 14.6038 12.4372 14.3479 12.5005 14.113C12.7381 13.2355 13.5271 12.6688 14.4074 12.8081C14.9727 12.8966 15.3467 13.2243 15.5042 13.7573C15.6013 14.0905 15.6449 14.4491 15.6491 14.7965C15.6605 15.8441 15.6589 16.8917 15.6573 17.9394C15.6567 18.3092 15.6561 18.6792 15.6561 19.049V19.2304H18.328V19.0251C18.328 18.5731 18.3278 18.1212 18.3275 17.6693C18.327 16.5398 18.3264 15.4103 18.3294 14.2804C18.3308 13.7699 18.276 13.2665 18.1508 12.7729C17.9638 12.0388 17.5771 11.4313 16.9485 10.9926C16.5027 10.6803 16.0133 10.4793 15.4663 10.4568C15.404 10.4542 15.3412 10.4508 15.2781 10.4474C14.9984 10.4322 14.7141 10.4169 14.4467 10.4708C13.6817 10.6241 13.0096 10.9743 12.5019 11.5916C12.4429 11.6624 12.3852 11.7343 12.2991 11.8416L12.2797 11.8659V10.6719ZM5.68164 19.2346H8.33242V10.6775H5.68164V19.2346Z" fill="white"/>
</svg>
