<svg width="32" height="32" viewBox="0 0 32 32" fill="none" xmlns="http://www.w3.org/2000/svg">
<path d="M23.8233 11.8233L23.8232 11.8233L23.4697 11.4697C23.4697 11.4697 23.4697 11.4697 23.4697 11.4697C23.3721 11.3721 23.2138 11.3721 23.1162 11.4697C23.1162 11.4697 23.1162 11.4697 23.1161 11.4697L16.3536 18.2323L16 18.5859L15.6465 18.2323L8.88388 11.4697C8.78625 11.3721 8.62803 11.3721 8.53039 11.4697L8.17679 11.8233C8.07915 11.921 8.07915 12.0792 8.17679 12.1768L15.8233 19.8233C15.9209 19.9209 16.0791 19.9209 16.1768 19.8233L23.8233 12.1768C23.8233 12.1768 23.8233 12.1768 23.8233 12.1768C23.9209 12.0792 23.9209 11.9209 23.8233 11.8233Z" fill="black" stroke="black"/>
</svg>
