<svg width="32" height="33" viewBox="0 0 32 33" fill="none" xmlns="http://www.w3.org/2000/svg">
<path d="M23.8233 20.8427L23.8232 20.8427L23.4697 21.1963C23.4697 21.1963 23.4697 21.1963 23.4697 21.1963C23.3721 21.2939 23.2138 21.2939 23.1162 21.1963C23.1162 21.1963 23.1162 21.1963 23.1161 21.1963L16.3536 14.4337L16 14.0801L15.6465 14.4337L8.88388 21.1963C8.78625 21.2939 8.62803 21.2939 8.53039 21.1963L8.17679 20.8427C8.07915 20.7451 8.07915 20.5868 8.17679 20.4892L15.8233 12.8427C15.9209 12.7451 16.0791 12.7451 16.1768 12.8427L23.8233 20.4892C23.8233 20.4892 23.8233 20.4892 23.8233 20.4892C23.9209 20.5868 23.9209 20.7451 23.8233 20.8427Z" fill="black" stroke="black"/>
</svg>
