<svg width="32" height="32" viewBox="0 0 32 32" fill="none" xmlns="http://www.w3.org/2000/svg">
<path d="M15.9988 18.6665C18.9401 18.6665 21.3321 16.2745 21.3321 13.3332C21.3321 10.3918 18.9401 7.99984 15.9988 7.99984C13.0574 7.99984 10.6654 10.3918 10.6654 13.3332C10.6654 16.2745 13.0574 18.6665 15.9988 18.6665ZM15.9988 10.6665C17.4694 10.6665 18.6654 11.8625 18.6654 13.3332C18.6654 14.8038 17.4694 15.9998 15.9988 15.9998C14.5281 15.9998 13.3321 14.8038 13.3321 13.3332C13.3321 11.8625 14.5281 10.6665 15.9988 10.6665Z" fill="#7AB342"/>
<path d="M15.2255 29.0852C15.4511 29.2463 15.7215 29.333 15.9988 29.333C16.2761 29.333 16.5465 29.2463 16.7721 29.0852C17.1775 28.7985 26.7041 21.9198 26.6655 13.3332C26.6655 7.45184 21.8801 2.6665 15.9988 2.6665C10.1175 2.6665 5.33215 7.45184 5.33215 13.3265C5.29348 21.9198 14.8201 28.7985 15.2255 29.0852ZM15.9988 5.33317C20.4108 5.33317 23.9988 8.92117 23.9988 13.3398C24.0268 19.2572 18.1481 24.5705 15.9988 26.3132C13.8508 24.5692 7.97081 19.2545 7.99882 13.3332C7.99882 8.92117 11.5868 5.33317 15.9988 5.33317Z" fill="#7AB342"/>
</svg>
