<svg width="100" height="47" viewBox="0 0 100 47" fill="none" xmlns="http://www.w3.org/2000/svg">
<g clip-path="url(#clip0_1_1285)">
<path d="M31.1111 13.3333H23.3333C20.6812 13.3333 18.1376 14.3869 16.2623 16.2623C14.3869 18.1376 13.3333 20.6812 13.3333 23.3333C13.3333 25.9855 14.3869 28.529 16.2623 30.4044C18.1376 32.2798 20.6812 33.3333 23.3333 33.3333H32.0333C32.3781 33.3333 32.7088 33.1964 32.9526 32.9526C33.1964 32.7088 33.3333 32.3781 33.3333 32.0333V9.07778C33.3357 7.07759 33.9986 5.13417 35.2191 3.54948C36.4395 1.96479 38.1492 0.827555 40.0825 0.314467C42.0157 -0.198622 44.0644 -0.0588338 45.91 0.712111C47.7556 1.48306 49.295 2.84199 50.2889 4.57778L60 21.5667V9.07778C60.0024 7.07759 60.6653 5.13417 61.8857 3.54948C63.1062 1.96479 64.8159 0.827555 66.7492 0.314467C68.6824 -0.198622 70.731 -0.0588338 72.5767 0.712111C74.4223 1.48306 75.9617 2.84199 76.9556 4.57778L86.6667 21.5667V0H92.2222L93.3333 1.11111L94.4445 0H100V37.5889C99.9976 39.5891 99.3347 41.5325 98.1143 43.1172C96.8938 44.7019 95.1841 45.8391 93.2509 46.3522C91.3176 46.8653 89.269 46.7255 87.4233 45.9546C85.5777 45.1836 84.0383 43.8247 83.0444 42.0889L73.3333 25.1V37.5889C73.331 39.5891 72.6681 41.5325 71.4476 43.1172C70.2271 44.7019 68.5175 45.8391 66.5842 46.3522C64.6509 46.8653 62.6023 46.7255 60.7567 45.9546C58.911 45.1836 57.3717 43.8247 56.3778 42.0889L46.6667 25.1V37.5889C46.6667 39.9965 45.7103 42.3054 44.0079 44.0079C42.3054 45.7103 39.9965 46.6667 37.5889 46.6667H23.3333C17.1449 46.6667 11.21 44.2083 6.83418 39.8325C2.45833 35.4566 0 29.5217 0 23.3333C0 17.1449 2.45833 11.21 6.83418 6.83418C11.21 2.45833 17.1449 0 23.3333 0H31.1111V5.55556L30 6.66667L31.1111 7.77778V13.3333Z" fill="black"/>
<path d="M31.1114 6.66667H23.3337C18.9134 6.66667 14.6742 8.42262 11.5485 11.5482C8.42294 14.6738 6.66699 18.9131 6.66699 23.3333C6.66699 27.7536 8.42294 31.9928 11.5485 35.1184C14.6742 38.2441 18.9134 40 23.3337 40H37.5892C37.9058 40 38.2194 39.9376 38.5119 39.8165C38.8044 39.6953 39.0702 39.5177 39.2941 39.2938C39.518 39.0699 39.6956 38.8041 39.8168 38.5116C39.938 38.2191 40.0003 37.9055 40.0003 37.5889V9.07778C40.0012 8.54723 40.1771 8.03179 40.5007 7.61135C40.8243 7.19091 41.2775 6.88894 41.7902 6.75223C42.3028 6.61553 42.8462 6.65173 43.3362 6.85522C43.8262 7.05871 44.2354 7.41813 44.5003 7.87778L62.167 38.7889C62.432 39.2485 62.8411 39.608 63.3311 39.8115C63.8211 40.0149 64.3645 40.0511 64.8771 39.9144C65.3898 39.7777 65.843 39.4758 66.1666 39.0553C66.4902 38.6349 66.6661 38.1194 66.667 37.5889V9.07778C66.6679 8.54723 66.8438 8.03179 67.1674 7.61135C67.491 7.19091 67.9442 6.88894 68.4568 6.75223C68.9695 6.61553 69.5129 6.65173 70.0029 6.85522C70.4928 7.05871 70.902 7.41813 71.167 7.87778L88.8337 38.7889C89.0986 39.2485 89.5078 39.608 89.9978 39.8115C90.4878 40.0149 91.0312 40.0511 91.5438 39.9144C92.0564 39.7777 92.5097 39.4758 92.8333 39.0553C93.1569 38.6349 93.3327 38.1194 93.3337 37.5889V0" stroke="#CC0000" stroke-width="10"/>
</g>
<defs>
<clipPath id="clip0_1_1285">
<rect width="100" height="46.6667" fill="white"/>
</clipPath>
</defs>
</svg>
