<svg width="131" height="55" viewBox="0 0 131 55" fill="none" xmlns="http://www.w3.org/2000/svg">
<path d="M82.8976 44.6875C84.9764 44.665 86.9649 43.8551 88.4111 42.3928C89.8798 40.9305 90.6933 38.9733 90.6933 36.9036V18.1414C90.6933 16.0717 89.8798 14.092 88.4337 12.6072C86.9649 11.1449 84.9764 10.3125 82.8976 10.3125H63.9393C61.8604 10.335 59.8719 11.1449 58.4258 12.6072C56.957 14.092 56.1436 16.0717 56.1436 18.1414V36.9261C56.1662 41.2005 59.646 44.6425 63.9167 44.665" fill="#EB2226"/>
<path d="M77.5186 28.5574C76.7955 30.9871 77.9705 33.4167 80.5013 32.4494C79.7782 34.2041 78.558 36.8137 78.558 39.5583C78.558 39.5583 78.558 41.4031 79.9138 41.853C79.9138 41.853 81.8119 42.3029 81.4052 40.6382C81.1114 39.5808 81.021 38.501 81.1566 37.4211C81.6085 35.1715 82.3316 32.9893 83.2355 30.8971C83.2355 30.8971 86.1278 24.868 87.8225 22.0784C87.8225 22.0784 88.523 20.6386 87.0995 20.6386C86.6701 20.6386 86.2634 20.8636 85.9922 21.201L81.9023 28.4674C81.2696 29.5923 80.6821 29.9522 80.2302 29.9522C79.1907 29.9522 79.4167 28.31 79.5749 27.7026C80.0268 25.6779 80.7725 23.7431 81.7441 21.8759C82.4672 20.2786 81.021 20.1437 81.021 20.1437C80.0946 19.8962 79.3941 21.4035 79.3941 21.4035L77.7446 24.7105C76.6826 26.5552 75.5301 28.31 74.2647 29.9972C74.2647 29.9972 74.0388 30.2672 73.8806 30.1547C73.7224 30.0197 73.7902 29.7498 73.7902 29.7498C74.0614 27.5001 74.5133 25.2954 75.146 23.1132C75.1686 22.9782 75.1912 22.8658 75.1912 22.7308C75.2138 22.4383 75.146 22.1459 74.9426 21.9209C74.7619 21.6734 74.4907 21.5385 74.1744 21.5385C73.4513 21.4485 73.0897 21.8084 72.4344 22.5958C70.9883 24.3505 69.3162 27.0052 68.5027 28.175C68.4123 28.31 68.2541 28.2875 68.2541 28.085C68.2541 27.5451 70.1522 21.7184 70.1522 21.7184C70.1522 21.7184 70.3782 20.9086 69.7229 20.6386C69.7229 20.6386 68.7287 20.0087 67.9152 21.2235L64.006 26.5102C63.7123 26.9152 63.5541 26.7802 63.5541 26.7802V26.4202L64.1868 22.9558C64.6839 20.3011 63.7575 20.1662 63.1474 20.0762C62.718 20.0762 62.2435 20.2112 61.882 20.4586C60.6618 21.0435 59.7353 23.4507 59.7353 23.4507C59.7353 23.4507 59.4642 24.3056 60.0517 24.6655C60.2324 24.778 60.4584 24.8455 60.6844 24.823C61.543 24.778 61.7238 23.1807 62.3339 23.1807C62.4469 23.1807 62.4469 23.3157 62.4469 23.3382L60.4358 31.7295C60.3002 32.2244 60.5262 32.7193 60.9329 32.9893C61.2041 33.1468 61.4978 33.1693 61.7916 33.1243C62.0627 33.0343 62.3113 32.8543 62.4695 32.6068L63.1926 31.482C64.2546 29.6148 66.1979 26.9377 66.4012 26.9377C66.4916 26.9377 66.5142 26.9377 66.5142 27.0277L65.7911 31.9769C65.7007 32.4044 65.9493 32.8768 66.356 33.0568C66.7402 33.1918 67.1469 33.1693 67.4859 32.9668C67.8926 32.6518 68.2541 32.2469 68.4801 31.7745C68.8868 31.1221 70.8301 28.8274 72.0277 26.7352C72.1181 26.6002 72.1859 26.7352 72.1633 26.8252C71.9147 27.9275 71.734 30.8746 71.7114 31.5945C71.6662 33.0343 72.7734 33.1918 72.796 33.1918C73.5191 33.2368 74.2422 32.9218 74.6489 32.3369" fill="white"/>
<path d="M19.1754 31.8192H17.0061V27.0049C17.0287 26.465 16.9157 25.9251 16.6898 25.4751C16.4412 25.1152 16.0119 24.9127 15.5826 24.9577C15.1984 24.9577 14.8595 25.0477 14.5431 25.2277C14.2268 25.4526 13.9556 25.7451 13.7523 26.06V31.8417H11.583V23.068H12.8032L13.6167 24.2378C13.8426 24.0578 14.046 23.8779 14.272 23.7204C14.4979 23.5854 14.7013 23.4729 14.9499 23.3604C15.1984 23.248 15.447 23.1805 15.6729 23.113C15.8989 23.0455 16.1927 23.023 16.4638 23.023C16.7576 23.023 17.0513 23.0455 17.3225 23.1355C17.5484 23.2255 17.7518 23.2929 17.9778 23.4279C18.1359 23.5629 18.2941 23.7204 18.4297 23.8779C18.5879 24.1028 18.7008 24.2828 18.8138 24.5078C18.972 24.3503 19.1754 24.1478 19.3787 23.9903C19.5821 23.8329 19.8307 23.6754 20.1018 23.5404C20.3504 23.3829 20.6215 23.248 20.9153 23.1355C21.2316 23.0455 21.5706 23.0005 21.9095 23.0005C22.3388 23.0005 22.7456 23.113 23.1297 23.2929C23.4913 23.5179 23.785 23.7879 23.9658 24.1028C24.1917 24.5078 24.3499 24.9127 24.4177 25.3626C24.5307 25.8801 24.5759 26.3975 24.5759 26.9374V31.7967H22.4292V27.0049C22.4744 26.465 22.384 25.9251 22.1129 25.4751C21.8643 25.1152 21.4576 24.9127 21.0283 24.9577C20.6667 24.9577 20.3278 25.0477 19.9888 25.2277C19.6725 25.4526 19.3561 25.7226 19.1754 26.06" fill="black"/>
<path d="M31.6938 27.8374H29.7731C29.3663 27.8149 28.9822 27.9274 28.6433 28.1299C28.4173 28.3548 28.2817 28.6473 28.2817 28.9622C28.2817 29.2547 28.3947 29.5246 28.5981 29.7496C28.8466 29.9296 29.163 30.0421 29.5019 30.0196C29.7505 30.0196 29.999 29.9971 30.225 29.9071C30.451 29.8621 30.6543 29.7721 30.8577 29.6596C31.0385 29.5246 31.2192 29.3897 31.3548 29.2547C31.513 29.0972 31.626 28.9397 31.7389 28.7598M31.6938 30.852C31.4 31.1444 31.0159 31.3919 30.6317 31.5494C30.112 31.7293 29.5697 31.8418 29.0274 31.8193C28.6433 31.8418 28.2365 31.7743 27.8976 31.6393C27.5812 31.5044 27.2649 31.3244 26.9937 31.0769C26.7452 30.807 26.5644 30.5145 26.4288 30.1771C26.2932 29.8171 26.248 29.4572 26.248 29.0747C26.248 27.455 27.5134 26.3976 29.5471 26.3976H31.7164V25.9027C31.7164 25.5877 31.5356 25.3178 31.2644 25.1828C30.8351 25.0028 30.338 24.8903 29.8635 24.9128C29.3211 24.9128 28.7788 25.0028 28.2591 25.0928C27.8524 25.2053 27.4457 25.3403 27.0389 25.4977L26.7904 23.698C26.9259 23.608 27.1067 23.563 27.3553 23.473C27.5812 23.383 27.8524 23.3381 28.0783 23.2481C28.3269 23.2031 28.6433 23.1356 28.9822 23.0906C29.2985 23.0456 29.6601 23.0456 30.0216 23.0456C31.0159 22.9556 32.0553 23.2931 32.8236 23.9455C33.5015 24.6429 33.8178 25.5877 33.7726 26.5326V31.8193H32.2361L31.6938 30.852Z" fill="black"/>
<path d="M43.9409 22.9107L40.4385 27.2976L44.4154 31.7969H41.7039L38.0207 27.3426V31.7969H35.874V19.7837H38.0207V27.3426L41.2971 22.9107H43.9409Z" fill="black"/>
<path d="M48.7313 25.003C48.4602 25.003 48.189 25.0255 47.9405 25.1155C47.7145 25.1605 47.5111 25.273 47.353 25.408C47.1722 25.5205 47.0366 25.6779 46.9236 25.8579C46.8107 26.0379 46.7429 26.2404 46.6751 26.4428H50.4939C50.4939 26.2629 50.4713 26.0604 50.3809 25.8804C50.3357 25.7229 50.2001 25.5655 50.0645 25.4305C49.9063 25.2955 49.703 25.183 49.5222 25.1155C49.2511 25.0255 48.9799 24.9805 48.7313 25.003ZM49.1381 29.9298C49.4544 29.9298 49.816 29.9073 50.1323 29.8173C50.4261 29.7723 50.7198 29.6824 50.991 29.5699C51.2395 29.4799 51.4881 29.3899 51.6915 29.2549C51.8044 29.2099 51.9174 29.1199 52.0078 29.03L52.4145 30.9422C51.9626 31.1896 51.4655 31.3921 50.9458 31.5721C50.3583 31.7296 49.7256 31.8196 49.0929 31.8196C48.415 31.8196 47.7371 31.7071 47.0818 31.5046C46.5621 31.3246 46.0424 31.0097 45.6356 30.6047C45.2289 30.2223 44.9352 29.7499 44.7318 29.2324C44.4832 28.6925 44.3703 28.1076 44.3477 27.4777C44.3477 26.9153 44.438 26.3528 44.6188 25.8129C44.7996 25.273 45.0707 24.8231 45.4549 24.3731C45.8164 23.9682 46.2683 23.6532 46.7881 23.4283C47.9631 22.9783 49.2737 22.9783 50.4487 23.4283C50.9458 23.6082 51.3525 23.9457 51.6915 24.3281C52.0078 24.7106 52.2564 25.138 52.4145 25.588C52.5501 26.0829 52.6405 26.5778 52.6405 27.0952C52.6405 27.2302 52.6405 27.3877 52.6405 27.5452C52.6179 27.7026 52.5953 27.8601 52.5501 27.9951H46.5621C46.5847 28.2876 46.6751 28.5575 46.8107 28.805C46.9236 29.0525 47.1044 29.2549 47.3304 29.4349C47.5563 29.6149 47.7823 29.7499 48.0986 29.8173C48.3924 29.9298 48.7313 29.9748 49.0703 29.9748L49.1381 29.9298Z" fill="black"/>
<path d="M92.7942 24.3053L95.6639 20.8408H96.3192V23.023H98.7822V24.9127H96.3192V28.5347C96.3192 28.7147 96.3418 28.9396 96.4096 29.1646C96.4548 29.2996 96.5452 29.4346 96.6582 29.5696C96.7712 29.6595 96.9067 29.727 97.0423 29.7495C97.1779 29.7945 97.3135 29.8395 97.4716 29.8395C97.7202 29.8395 97.9688 29.817 98.1721 29.727C98.3981 29.7045 98.5789 29.6145 98.7596 29.5471V31.4593C98.5337 31.5718 98.3077 31.6392 98.0366 31.7067C97.2683 31.8642 96.5 31.8417 95.7543 31.6168C95.3928 31.5043 95.099 31.3243 94.8279 31.0768C94.6019 30.8294 94.4211 30.5369 94.3082 30.222C94.1952 29.862 94.1274 29.4571 94.15 29.0971V24.9802H92.749" fill="black"/>
<path d="M102.465 24.8679C102.782 24.328 103.189 23.878 103.708 23.5181C104.138 23.2031 104.68 23.0231 105.245 23.0681C105.403 23.0456 105.561 23.0456 105.742 23.0681L106.036 23.1131C106.036 23.1131 105.99 23.6081 105.652 25.1153C105.493 25.0928 105.335 25.0703 105.154 25.0928C104.77 25.0703 104.431 25.1378 104.07 25.2728C103.753 25.4078 103.482 25.6328 103.256 25.9027C103.03 26.1727 102.85 26.4876 102.737 26.8476C102.624 27.275 102.578 27.7025 102.578 28.1524V31.8419H100.409V23.0681H101.765" fill="black"/>
<path d="M115.798 24.9806C115.549 24.9581 115.3 25.0031 115.097 25.093C114.871 25.183 114.69 25.273 114.51 25.408C114.351 25.5205 114.216 25.678 114.08 25.8354C113.967 25.9929 113.854 26.1504 113.809 26.3529V28.8275C113.899 28.985 113.99 29.12 114.125 29.2549C114.261 29.3899 114.397 29.5024 114.555 29.6149C114.735 29.7274 114.939 29.7949 115.12 29.8623C115.662 29.9973 116.227 29.9748 116.747 29.7724C116.995 29.6374 117.244 29.4799 117.402 29.2549C117.583 29.03 117.718 28.76 117.809 28.49C117.899 28.1751 117.944 27.8151 117.967 27.4552C117.967 27.1402 117.922 26.7803 117.809 26.4203C117.718 26.1279 117.583 25.8579 117.402 25.6105C117.221 25.3855 116.995 25.2055 116.724 25.093C116.453 24.9581 116.182 24.9131 115.888 24.9131M116.385 23.0458C116.973 23.0233 117.56 23.1583 118.057 23.4058C118.509 23.6532 118.893 23.9682 119.232 24.3956C119.526 24.8231 119.774 25.318 119.91 25.8354C120.046 26.3754 120.136 26.9378 120.136 27.4777C120.136 28.0401 120.046 28.6025 119.887 29.1424C119.752 29.6599 119.503 30.1098 119.187 30.5148C118.871 30.9197 118.486 31.2346 118.012 31.4596C117.515 31.7071 116.95 31.8196 116.408 31.8196C115.865 31.8196 115.346 31.7296 114.871 31.5496C114.464 31.3696 114.08 31.1222 113.786 30.7622V35.329H111.617V23.0458H112.883L113.719 24.1032C114.035 23.7882 114.442 23.5183 114.916 23.2933C115.368 23.1358 115.865 23.0233 116.362 23.0458H116.385Z" fill="black"/>
<path d="M108.272 19.4688C107.64 19.4688 107.165 19.9637 107.165 20.5712C107.165 21.1786 107.662 21.696 108.272 21.696C108.882 21.696 109.379 21.1786 109.379 20.5712C109.402 20.2787 109.266 20.0087 109.063 19.7838C108.882 19.5588 108.566 19.4238 108.272 19.4238M109.334 31.8195H107.165V23.0458H109.334V31.8195Z" fill="black"/>
</svg>
