<svg width="131" height="56" viewBox="0 0 131 56" fill="none" xmlns="http://www.w3.org/2000/svg">
<path d="M82.8976 44.854C84.9764 44.8315 86.9649 44.0216 88.4111 42.5593C89.8798 41.0971 90.6933 39.1398 90.6933 37.0701V18.3079C90.6933 16.2382 89.8798 14.2585 88.4337 12.7737C86.9649 11.3114 84.9764 10.479 82.8976 10.479H63.9393C61.8604 10.5015 59.8719 11.3114 58.4258 12.7737C56.957 14.2585 56.1436 16.2382 56.1436 18.3079V37.0926C56.1662 41.367 59.646 44.809 63.9167 44.8315" fill="#EB2226"/>
<path d="M77.5186 28.7239C76.7955 31.1536 77.9705 33.5832 80.5013 32.6159C79.7782 34.3706 78.558 36.9802 78.558 39.7248C78.558 39.7248 78.558 41.5696 79.9138 42.0195C79.9138 42.0195 81.8119 42.4694 81.4052 40.8047C81.1114 39.7473 81.021 38.6675 81.1566 37.5877C81.6085 35.338 82.3316 33.1558 83.2355 31.0636C83.2355 31.0636 86.1278 25.0345 87.8225 22.2449C87.8225 22.2449 88.523 20.8051 87.0995 20.8051C86.6701 20.8051 86.2634 21.0301 85.9922 21.3675L81.9023 28.634C81.2696 29.7588 80.6821 30.1187 80.2302 30.1187C79.1907 30.1187 79.4167 28.4765 79.5749 27.8691C80.0268 25.8444 80.7725 23.9096 81.7441 22.0424C82.4672 20.4451 81.021 20.3102 81.021 20.3102C80.0946 20.0627 79.3941 21.57 79.3941 21.57L77.7446 24.877C76.6826 26.7217 75.5301 28.4765 74.2647 30.1637C74.2647 30.1637 74.0388 30.4337 73.8806 30.3212C73.7224 30.1862 73.7902 29.9163 73.7902 29.9163C74.0614 27.6666 74.5133 25.4619 75.146 23.2797C75.1686 23.1448 75.1912 23.0323 75.1912 22.8973C75.2138 22.6048 75.146 22.3124 74.9426 22.0874C74.7619 21.8399 74.4907 21.705 74.1744 21.705C73.4513 21.615 73.0897 21.9749 72.4344 22.7623C70.9883 24.5171 69.3162 27.1717 68.5027 28.3415C68.4123 28.4765 68.2541 28.454 68.2541 28.2515C68.2541 27.7116 70.1522 21.8849 70.1522 21.8849C70.1522 21.8849 70.3782 21.0751 69.7229 20.8051C69.7229 20.8051 68.7287 20.1752 67.9152 21.39L64.006 26.6767C63.7123 27.0817 63.5541 26.9467 63.5541 26.9467V26.5868L64.1868 23.1223C64.6839 20.4676 63.7575 20.3327 63.1474 20.2427C62.718 20.2427 62.2435 20.3777 61.882 20.6251C60.6618 21.21 59.7353 23.6172 59.7353 23.6172C59.7353 23.6172 59.4642 24.4721 60.0517 24.832C60.2324 24.9445 60.4584 25.012 60.6844 24.9895C61.543 24.9445 61.7238 23.3472 62.3339 23.3472C62.4469 23.3472 62.4469 23.4822 62.4469 23.5047L60.4358 31.896C60.3002 32.3909 60.5262 32.8858 60.9329 33.1558C61.2041 33.3133 61.4978 33.3358 61.7916 33.2908C62.0627 33.2008 62.3113 33.0208 62.4695 32.7734L63.1926 31.6485C64.2546 29.7813 66.1979 27.1042 66.4012 27.1042C66.4916 27.1042 66.5142 27.1042 66.5142 27.1942L65.7911 32.1434C65.7007 32.5709 65.9493 33.0433 66.356 33.2233C66.7402 33.3583 67.1469 33.3358 67.4859 33.1333C67.8926 32.8183 68.2541 32.4134 68.4801 31.941C68.8868 31.2886 70.8301 28.9939 72.0277 26.9017C72.1181 26.7667 72.1859 26.9017 72.1633 26.9917C71.9147 28.094 71.734 31.0411 71.7114 31.761C71.6662 33.2008 72.7734 33.3583 72.796 33.3583C73.5191 33.4033 74.2422 33.0883 74.6489 32.5034" fill="white"/>
<path d="M19.1754 31.9857H17.0061V27.1714C17.0287 26.6315 16.9157 26.0916 16.6898 25.6416C16.4412 25.2817 16.0119 25.0792 15.5826 25.1242C15.1984 25.1242 14.8595 25.2142 14.5431 25.3942C14.2268 25.6191 13.9556 25.9116 13.7523 26.2265V32.0082H11.583V23.2345H12.8032L13.6167 24.4043C13.8426 24.2243 14.046 24.0444 14.272 23.8869C14.4979 23.7519 14.7013 23.6394 14.9499 23.5269C15.1984 23.4145 15.447 23.347 15.6729 23.2795C15.8989 23.212 16.1927 23.1895 16.4638 23.1895C16.7576 23.1895 17.0513 23.212 17.3225 23.302C17.5484 23.392 17.7518 23.4594 17.9778 23.5944C18.1359 23.7294 18.2941 23.8869 18.4297 24.0444C18.5879 24.2693 18.7008 24.4493 18.8138 24.6743C18.972 24.5168 19.1754 24.3143 19.3787 24.1568C19.5821 23.9994 19.8307 23.8419 20.1018 23.7069C20.3504 23.5494 20.6215 23.4145 20.9153 23.302C21.2316 23.212 21.5706 23.167 21.9095 23.167C22.3388 23.167 22.7456 23.2795 23.1297 23.4594C23.4913 23.6844 23.785 23.9544 23.9658 24.2693C24.1917 24.6743 24.3499 25.0792 24.4177 25.5291C24.5307 26.0466 24.5759 26.564 24.5759 27.1039V31.9632H22.4292V27.1714C22.4744 26.6315 22.384 26.0916 22.1129 25.6416C21.8643 25.2817 21.4576 25.0792 21.0283 25.1242C20.6667 25.1242 20.3278 25.2142 19.9888 25.3942C19.6725 25.6191 19.3561 25.8891 19.1754 26.2265" fill="black"/>
<path d="M31.6938 28.0039H29.7731C29.3663 27.9814 28.9822 28.0939 28.6433 28.2964C28.4173 28.5213 28.2817 28.8138 28.2817 29.1287C28.2817 29.4212 28.3947 29.6912 28.5981 29.9161C28.8466 30.0961 29.163 30.2086 29.5019 30.1861C29.7505 30.1861 29.999 30.1636 30.225 30.0736C30.451 30.0286 30.6543 29.9386 30.8577 29.8261C31.0385 29.6912 31.2192 29.5562 31.3548 29.4212C31.513 29.2637 31.626 29.1062 31.7389 28.9263M31.6938 31.0185C31.4 31.3109 31.0159 31.5584 30.6317 31.7159C30.112 31.8958 29.5697 32.0083 29.0274 31.9858C28.6433 32.0083 28.2365 31.9408 27.8976 31.8058C27.5812 31.6709 27.2649 31.4909 26.9937 31.2434C26.7452 30.9735 26.5644 30.681 26.4288 30.3436C26.2932 29.9836 26.248 29.6237 26.248 29.2412C26.248 27.6215 27.5134 26.5641 29.5471 26.5641H31.7164V26.0692C31.7164 25.7542 31.5356 25.4843 31.2644 25.3493C30.8351 25.1693 30.338 25.0568 29.8635 25.0793C29.3211 25.0793 28.7788 25.1693 28.2591 25.2593C27.8524 25.3718 27.4457 25.5068 27.0389 25.6642L26.7904 23.8645C26.9259 23.7745 27.1067 23.7295 27.3553 23.6395C27.5812 23.5495 27.8524 23.5046 28.0783 23.4146C28.3269 23.3696 28.6433 23.3021 28.9822 23.2571C29.2985 23.2121 29.6601 23.2121 30.0216 23.2121C31.0159 23.1221 32.0553 23.4596 32.8236 24.112C33.5015 24.8094 33.8178 25.7542 33.7726 26.6991V31.9858H32.2361L31.6938 31.0185Z" fill="black"/>
<path d="M43.9409 23.0772L40.4385 27.4641L44.4154 31.9634H41.7039L38.0207 27.5091V31.9634H35.874V19.9502H38.0207V27.5091L41.2971 23.0772H43.9409Z" fill="black"/>
<path d="M48.7313 25.1695C48.4602 25.1695 48.189 25.192 47.9405 25.282C47.7145 25.327 47.5111 25.4395 47.353 25.5745C47.1722 25.687 47.0366 25.8444 46.9236 26.0244C46.8107 26.2044 46.7429 26.4069 46.6751 26.6093H50.4939C50.4939 26.4294 50.4713 26.2269 50.3809 26.0469C50.3357 25.8894 50.2001 25.732 50.0645 25.597C49.9063 25.462 49.703 25.3495 49.5222 25.282C49.2511 25.192 48.9799 25.1471 48.7313 25.1695ZM49.1381 30.0963C49.4544 30.0963 49.816 30.0738 50.1323 29.9838C50.4261 29.9389 50.7198 29.8489 50.991 29.7364C51.2395 29.6464 51.4881 29.5564 51.6915 29.4214C51.8044 29.3764 51.9174 29.2864 52.0078 29.1965L52.4145 31.1087C51.9626 31.3561 51.4655 31.5586 50.9458 31.7386C50.3583 31.8961 49.7256 31.9861 49.0929 31.9861C48.415 31.9861 47.7371 31.8736 47.0818 31.6711C46.5621 31.4911 46.0424 31.1762 45.6356 30.7712C45.2289 30.3888 44.9352 29.9164 44.7318 29.3989C44.4832 28.859 44.3703 28.2741 44.3477 27.6442C44.3477 27.0818 44.438 26.5194 44.6188 25.9794C44.7996 25.4395 45.0707 24.9896 45.4549 24.5396C45.8164 24.1347 46.2683 23.8197 46.7881 23.5948C47.9631 23.1448 49.2737 23.1448 50.4487 23.5948C50.9458 23.7747 51.3525 24.1122 51.6915 24.4946C52.0078 24.8771 52.2564 25.3045 52.4145 25.7545C52.5501 26.2494 52.6405 26.7443 52.6405 27.2617C52.6405 27.3967 52.6405 27.5542 52.6405 27.7117C52.6179 27.8692 52.5953 28.0266 52.5501 28.1616H46.5621C46.5847 28.4541 46.6751 28.724 46.8107 28.9715C46.9236 29.219 47.1044 29.4214 47.3304 29.6014C47.5563 29.7814 47.7823 29.9164 48.0986 29.9838C48.3924 30.0963 48.7313 30.1413 49.0703 30.1413L49.1381 30.0963Z" fill="black"/>
<path d="M92.7942 24.4718L95.6639 21.0073H96.3192V23.1895H98.7822V25.0792H96.3192V28.7012C96.3192 28.8812 96.3418 29.1061 96.4096 29.3311C96.4548 29.4661 96.5452 29.6011 96.6582 29.7361C96.7712 29.826 96.9067 29.8935 97.0423 29.916C97.1779 29.961 97.3135 30.006 97.4716 30.006C97.7202 30.006 97.9688 29.9835 98.1721 29.8935C98.3981 29.871 98.5789 29.781 98.7596 29.7136V31.6258C98.5337 31.7383 98.3077 31.8058 98.0366 31.8732C97.2683 32.0307 96.5 32.0082 95.7543 31.7833C95.3928 31.6708 95.099 31.4908 94.8279 31.2433C94.6019 30.9959 94.4211 30.7034 94.3082 30.3885C94.1952 30.0285 94.1274 29.6236 94.15 29.2636V25.1467H92.749" fill="black"/>
<path d="M102.465 25.0344C102.782 24.4945 103.189 24.0445 103.708 23.6846C104.138 23.3696 104.68 23.1897 105.245 23.2346C105.403 23.2121 105.561 23.2121 105.742 23.2346L106.036 23.2796C106.036 23.2796 105.99 23.7746 105.652 25.2818C105.493 25.2594 105.335 25.2369 105.154 25.2594C104.77 25.2369 104.431 25.3043 104.07 25.4393C103.753 25.5743 103.482 25.7993 103.256 26.0692C103.03 26.3392 102.85 26.6541 102.737 27.0141C102.624 27.4415 102.578 27.869 102.578 28.3189V32.0084H100.409V23.2346H101.765" fill="black"/>
<path d="M115.798 25.1471C115.549 25.1246 115.3 25.1696 115.097 25.2595C114.871 25.3495 114.69 25.4395 114.51 25.5745C114.351 25.687 114.216 25.8445 114.08 26.0019C113.967 26.1594 113.854 26.3169 113.809 26.5194V28.994C113.899 29.1515 113.99 29.2865 114.125 29.4214C114.261 29.5564 114.397 29.6689 114.555 29.7814C114.735 29.8939 114.939 29.9614 115.12 30.0288C115.662 30.1638 116.227 30.1413 116.747 29.9389C116.995 29.8039 117.244 29.6464 117.402 29.4214C117.583 29.1965 117.718 28.9265 117.809 28.6565C117.899 28.3416 117.944 27.9816 117.967 27.6217C117.967 27.3067 117.922 26.9468 117.809 26.5868C117.718 26.2944 117.583 26.0244 117.402 25.777C117.221 25.552 116.995 25.372 116.724 25.2595C116.453 25.1246 116.182 25.0796 115.888 25.0796M116.385 23.2123C116.973 23.1898 117.56 23.3248 118.057 23.5723C118.509 23.8198 118.893 24.1347 119.232 24.5621C119.526 24.9896 119.774 25.4845 119.91 26.0019C120.046 26.5419 120.136 27.1043 120.136 27.6442C120.136 28.2066 120.046 28.769 119.887 29.309C119.752 29.8264 119.503 30.2763 119.187 30.6813C118.871 31.0862 118.486 31.4011 118.012 31.6261C117.515 31.8736 116.95 31.9861 116.408 31.9861C115.865 31.9861 115.346 31.8961 114.871 31.7161C114.464 31.5361 114.08 31.2887 113.786 30.9287V35.4956H111.617V23.2123H112.883L113.719 24.2697C114.035 23.9547 114.442 23.6848 114.916 23.4598C115.368 23.3023 115.865 23.1898 116.362 23.2123H116.385Z" fill="black"/>
<path d="M108.272 19.6353C107.64 19.6353 107.165 20.1303 107.165 20.7377C107.165 21.3451 107.662 21.8625 108.272 21.8625C108.882 21.8625 109.379 21.3451 109.379 20.7377C109.402 20.4452 109.266 20.1752 109.063 19.9503C108.882 19.7253 108.566 19.5903 108.272 19.5903M109.334 31.986H107.165V23.2123H109.334V31.986Z" fill="black"/>
</svg>
