<svg width="100" height="30" viewBox="0 0 100 30" fill="none" xmlns="http://www.w3.org/2000/svg">
<g clip-path="url(#clip0_1_1263)">
<path d="M0 29.9998H20.5553V0.666504H0V29.9998ZM17.6188 27.0665H2.93647V3.59984H17.6188V27.0665Z" fill="#FFCC00"/>
<path d="M34.17 13.8396H32.8886C31.2335 11.4929 29.5784 9.14628 27.9233 6.53294V13.8396H26.5352V3.59961H27.7631C29.4182 5.94628 31.0733 8.23961 32.7284 10.8529H32.7818V3.59961H34.17V13.8396Z" fill="black"/>
<path d="M37.4801 9.78628C37.9072 8.45294 38.2809 7.22628 38.6547 5.62628H38.7081C39.1352 7.22628 39.5089 8.45294 39.8826 9.78628H37.4801ZM38.1741 3.59961L34.6504 13.7863H36.1453L37.053 11.0129H40.1496L40.9504 13.7863H42.9259L39.6157 3.59961H38.1741Z" fill="black"/>
<path d="M44.5279 13.8396V4.98628H41.8584V3.59961H48.9593V4.98628H46.2898V13.8396H44.5279Z" fill="black"/>
<path d="M49.5459 13.8396V8.71961V3.59961H51.3078V8.71961V13.8396H49.5459Z" fill="black"/>
<path d="M56.7006 12.5599C54.8853 12.5599 54.2446 10.5333 54.2446 8.61327C54.2446 6.74661 54.9921 4.93327 56.7006 4.93327C58.4625 4.93327 59.1565 6.74661 59.1565 8.61327C59.1565 10.5333 58.5159 12.5599 56.7006 12.5599ZM56.7006 13.9999C59.3701 13.9999 61.0252 11.5999 61.0252 8.55994C61.0252 5.67994 59.2099 3.43994 56.7006 3.43994C54.1912 3.43994 52.376 5.73327 52.376 8.55994C52.376 11.5999 54.0311 13.9999 56.7006 13.9999Z" fill="black"/>
<path d="M69.7276 13.8396H68.4462C66.7911 11.4929 65.136 9.14628 63.4809 6.53294V13.8396H62.0928V3.59961H63.3741C65.0292 5.94628 66.6843 8.23961 68.3394 10.8529H68.3928V3.59961H69.781V13.8396H69.7276Z" fill="black"/>
<path d="M73.0911 9.78628C73.5182 8.45294 73.8919 7.22628 74.2657 5.62628H74.3191C74.7462 7.22628 75.0665 8.45294 75.4936 9.78628H73.0911ZM73.7318 3.59961L70.208 13.7863H71.7029L72.6106 11.0129H75.7072L76.5081 13.7863H78.4835L75.2267 3.59961H73.7318Z" fill="black"/>
<path d="M78.9639 3.59961H80.7257V12.4529H84.1427V13.8396H78.9639V3.59961Z" fill="black"/>
<path d="M33.1016 22.3732V26.5865C32.1406 26.9598 31.1796 27.2265 30.2185 27.2265C27.2287 27.2265 25.3066 24.8798 25.3066 21.8932C25.3066 19.1198 27.2287 16.6665 30.2719 16.6665C31.233 16.6665 32.194 17.0398 32.7279 17.4665L32.1406 18.6932C31.6601 18.4265 30.966 18.1598 30.2719 18.1598C28.4033 18.1598 27.1219 19.6532 27.1219 21.9465C27.1219 24.3465 28.5634 25.7865 30.1118 25.7865C30.5923 25.7865 30.966 25.7332 31.3397 25.5198V22.3732H33.1016Z" fill="black"/>
<path d="M39.3491 18.2133H36.4126V20.9867H39.2957V22.3733H36.4126V25.68H39.883V27.0133H34.7041V16.8267H39.3491V18.2133Z" fill="black"/>
<path d="M44.7406 25.7332C42.9254 25.7332 42.2847 23.7065 42.2847 21.7865C42.2847 19.9198 43.0321 18.1065 44.7406 18.1065C46.5025 18.1065 47.1966 19.9198 47.1966 21.7865C47.25 23.7598 46.6093 25.7332 44.7406 25.7332ZM44.7406 27.2265C47.4101 27.2265 49.0652 24.8265 49.0652 21.7865C49.0652 18.9065 47.25 16.6665 44.7406 16.6665C42.2313 16.6665 40.416 18.9598 40.416 21.7865C40.416 24.8265 42.0711 27.2265 44.7406 27.2265Z" fill="black"/>
<path d="M57.501 22.3732V26.5865C56.5934 26.9598 55.579 27.2265 54.618 27.2265C51.6281 27.2265 49.7061 24.8798 49.7061 21.8932C49.7061 19.1198 51.6281 16.6665 54.6714 16.6665C55.6324 16.6665 56.5934 17.0398 57.1273 17.4665L56.54 18.6932C56.0595 18.4265 55.3654 18.1598 54.6714 18.1598C52.8027 18.1598 51.5213 19.6532 51.5213 21.9465C51.5213 24.3465 52.9629 25.7865 54.5112 25.7865C54.9917 25.7865 55.3654 25.7332 55.7392 25.5198V22.3732H57.501Z" fill="black"/>
<path d="M60.8654 18.2133H61.6663C62.6807 18.2133 63.268 18.8 63.268 19.8667C63.268 21.2533 62.4137 21.84 61.6129 21.8933C61.4527 21.8933 61.0256 21.9467 60.8654 21.9467V18.2133ZM65.2968 27.0133L63.2146 22.8C64.3358 22.2133 64.9764 20.9867 64.9764 19.76C64.9764 17.7867 63.7485 16.8267 61.8264 16.8267H59.1035V27.0133H60.8654V23.1733H61.6129H61.6663L63.3213 27.0133H65.2968Z" fill="black"/>
<path d="M68.1793 23.0133C68.6064 21.68 68.9801 20.4533 69.3539 18.8533H69.4073C69.8344 20.4533 70.2081 21.68 70.5819 23.0133H68.1793ZM68.8734 16.8267L65.3496 27.0133H66.8445L67.7522 24.24H70.8488L71.6497 27.0133H73.6251L70.3683 16.8267H68.8734Z" fill="black"/>
<path d="M76.8821 16.8267H74.1592V27.0133H75.9211V23.1733H76.7219C78.8041 23.1733 80.0855 21.4667 80.0855 19.76C80.0321 17.7867 78.8041 16.8267 76.8821 16.8267ZM76.6151 21.8933C76.455 21.8933 76.0278 21.9467 75.8677 21.9467V18.2133H76.6685C77.6829 18.2133 78.2702 18.8 78.2702 19.8667C78.2702 21.2 77.4694 21.84 76.6151 21.8933Z" fill="black"/>
<path d="M88.1478 27.0133H86.3859V22.1067H82.7554V27.0133H81.0469V16.8267H82.7554V20.7733H86.3859V16.88H88.1478V27.0133Z" fill="black"/>
<path d="M89.8555 27.0133V21.9467V16.8267H91.564V21.9467V27.0133H89.8555Z" fill="black"/>
<path d="M99.4664 18.6933C99.0393 18.4266 98.3452 18.1066 97.6512 18.1066C95.8893 18.1066 94.5545 19.5999 94.5545 21.8933C94.5545 24.2933 95.9961 25.7333 97.7046 25.7333C98.3986 25.7333 98.9859 25.5199 99.4664 25.1999L99.9469 26.4799C99.413 26.8533 98.5054 27.1733 97.6512 27.1733C94.6613 27.1733 92.7393 24.8266 92.7393 21.8399C92.7393 19.0666 94.6079 16.6133 97.6512 16.6133C98.5588 16.6133 99.413 16.9866 100 17.4133L99.4664 18.6933Z" fill="black"/>
</g>
<defs>
<clipPath id="clip0_1_1263">
<rect width="100" height="29.3333" fill="white" transform="translate(0 0.666504)"/>
</clipPath>
</defs>
</svg>
