<svg width="51" height="51" viewBox="0 0 51 51" fill="none" xmlns="http://www.w3.org/2000/svg">
<rect x="0.330078" y="0.5" width="50" height="50" rx="25" fill="#EB662B" fill-opacity="0.05"/>
<path d="M28.1551 28.3254C28.6426 27.8362 28.7084 27.1112 28.3018 26.7037C27.8951 26.2962 27.1693 26.3629 26.6809 26.8512C26.1934 27.3396 25.4676 27.4054 25.0609 26.9987C24.6543 26.5921 24.7201 25.8662 25.2084 25.3787M25.2084 25.3787L24.9134 25.0837M25.2084 25.3787C25.4843 25.1021 25.8359 24.9621 26.1634 24.9646M28.4493 28.6196L28.1543 28.3246C27.8209 28.6587 27.3751 28.7954 26.9968 28.7171M22.5026 24.5662C22.8322 24.5662 23.1545 24.4685 23.4286 24.2854C23.7026 24.1022 23.9163 23.8419 24.0424 23.5374C24.1685 23.2328 24.2016 22.8977 24.1372 22.5744C24.0729 22.2511 23.9142 21.9542 23.6811 21.7211C23.448 21.488 23.1511 21.3292 22.8278 21.2649C22.5045 21.2006 22.1693 21.2336 21.8648 21.3598C21.5603 21.4859 21.3 21.6995 21.1168 21.9736C20.9337 22.2477 20.8359 22.5699 20.8359 22.8996" stroke="black" stroke-width="1.25" stroke-linecap="round"/>
<path d="M28.7771 19.4402C27.4888 18.1527 26.8455 17.5085 26.0096 17.2694C25.1738 17.0294 24.2863 17.2344 22.5121 17.6444L21.4888 17.8802C19.9955 18.2244 19.2488 18.3969 18.7371 18.9077C18.2255 19.4185 18.0546 20.1669 17.7096 21.6594L17.473 22.6827C17.0638 24.4577 16.8588 25.3444 17.098 26.1802C17.338 27.016 17.9821 27.6594 19.2696 28.9469L20.7946 30.4719C23.0363 32.7144 24.1563 33.8335 25.548 33.8335C26.9405 33.8335 28.0605 32.7135 30.3013 30.4727C32.543 28.231 33.663 27.111 33.663 25.7185C33.663 24.6002 32.9396 23.6569 31.493 22.1669" stroke="black" stroke-width="1.25" stroke-linecap="round"/>
</svg>
