<svg width="51" height="51" viewBox="0 0 51 51" fill="none" xmlns="http://www.w3.org/2000/svg">
<rect x="0.330078" y="0.5" width="50" height="50" rx="25" fill="#EB662B" fill-opacity="0.05"/>
<path d="M28.6634 18C28.8675 18 29.0645 18.075 29.2171 18.2106C29.3696 18.3462 29.467 18.5331 29.4909 18.7358L29.4967 18.8333V19.6667H31.1634C31.5839 19.6665 31.9889 19.8253 32.2972 20.1112C32.6055 20.3972 32.7944 20.789 32.8259 21.2083L32.8301 21.3333V31.3333C32.8302 31.7538 32.6714 32.1588 32.3855 32.4671C32.0996 32.7754 31.7077 32.9643 31.2884 32.9958L31.1634 33H19.4967C19.0763 33.0001 18.6713 32.8413 18.363 32.5554C18.0546 32.2695 17.8658 31.8776 17.8342 31.4583L17.8301 31.3333V21.3333C17.8299 20.9129 17.9888 20.5079 18.2747 20.1995C18.5606 19.8912 18.9524 19.7024 19.3717 19.6708L19.4967 19.6667H21.1634V18.8333C21.1636 18.6209 21.245 18.4166 21.3908 18.2622C21.5366 18.1077 21.7359 18.0148 21.9479 18.0024C22.1599 17.9899 22.3687 18.0589 22.5316 18.1952C22.6945 18.3315 22.7992 18.5249 22.8242 18.7358L22.8301 18.8333V19.6667H27.8301V18.8333C27.8301 18.6123 27.9179 18.4004 28.0742 18.2441C28.2304 18.0878 28.4424 18 28.6634 18ZM31.1634 25.5H19.4967V31.3333H31.1634V25.5ZM31.1634 21.3333H19.4967V23.8333H31.1634V21.3333Z" fill="black"/>
</svg>
