<svg width="51" height="51" viewBox="0 0 51 51" fill="none" xmlns="http://www.w3.org/2000/svg">
<rect x="0.330078" y="0.5" width="50" height="50" rx="25" fill="#EB662B" fill-opacity="0.05"/>
<g clip-path="url(#clip0_1_1140)">
<path d="M25.3304 17.1665C29.9329 17.1665 33.6637 20.8973 33.6637 25.4998C33.6637 30.1023 29.9329 33.8332 25.3304 33.8332C20.7279 33.8332 16.9971 30.1023 16.9971 25.4998C16.9971 20.8973 20.7279 17.1665 25.3304 17.1665ZM25.3304 18.8332C23.5623 18.8332 21.8666 19.5355 20.6164 20.7858C19.3661 22.036 18.6637 23.7317 18.6637 25.4998C18.6637 27.2679 19.3661 28.9636 20.6164 30.2139C21.8666 31.4641 23.5623 32.1665 25.3304 32.1665C27.0985 32.1665 28.7942 31.4641 30.0444 30.2139C31.2947 28.9636 31.9971 27.2679 31.9971 25.4998C31.9971 23.7317 31.2947 22.036 30.0444 20.7858C28.7942 19.5355 27.0985 18.8332 25.3304 18.8332ZM25.3304 20.4998C25.5345 20.4999 25.7315 20.5748 25.884 20.7104C26.0366 20.8461 26.134 21.033 26.1579 21.2357L26.1637 21.3332V25.1548L28.4196 27.4107C28.569 27.5606 28.6558 27.7619 28.6623 27.9735C28.6687 28.1851 28.5944 28.3913 28.4544 28.5501C28.3143 28.7089 28.1191 28.8084 27.9083 28.8285C27.6976 28.8486 27.4871 28.7877 27.3196 28.6582L27.2412 28.589L24.7412 26.089C24.6117 25.9594 24.5285 25.7907 24.5046 25.609L24.4971 25.4998V21.3332C24.4971 21.1122 24.5849 20.9002 24.7411 20.7439C24.8974 20.5876 25.1094 20.4998 25.3304 20.4998Z" fill="black"/>
</g>
<defs>
<clipPath id="clip0_1_1140">
<rect width="20" height="20" fill="white" transform="translate(15.3301 15.5)"/>
</clipPath>
</defs>
</svg>
