<svg width="64" height="64" viewBox="0 0 64 64" fill="none" xmlns="http://www.w3.org/2000/svg">
<path fill-rule="evenodd" clip-rule="evenodd" d="M5.33398 32.0002C5.33398 17.2726 17.2731 5.3335 32.0007 5.3335C39.0731 5.3335 45.8559 8.14302 50.8569 13.144C55.8578 18.145 58.6673 24.9278 58.6673 32.0002C58.6673 46.7278 46.7283 58.6669 32.0007 58.6669C17.2731 58.6669 5.33398 46.7278 5.33398 32.0002ZM27.1208 43.4136L42.6674 33.7069C43.2492 33.3343 43.6011 32.6911 43.6011 32.0002C43.6011 31.3094 43.2492 30.6661 42.6674 30.2936L27.0674 20.5869C26.453 20.1995 25.6768 20.1757 25.0398 20.5246C24.4028 20.8736 24.005 21.5405 24.0008 22.2669V41.7336C23.9922 42.4776 24.3973 43.1649 25.0524 43.5176C25.7075 43.8704 26.5043 43.8303 27.1208 43.4136Z" fill="white"/>
</svg>
