<svg width="44" height="45" viewBox="0 0 44 45" fill="none" xmlns="http://www.w3.org/2000/svg">
<path fill-rule="evenodd" clip-rule="evenodd" d="M3.66602 22.6673C3.66602 12.5421 11.8741 4.33398 21.9994 4.33398C26.8616 4.33398 31.5248 6.26553 34.963 9.70368C38.4011 13.1419 40.3327 17.805 40.3327 22.6673C40.3327 32.7925 32.1246 41.0007 21.9994 41.0007C11.8741 41.0007 3.66602 32.7925 3.66602 22.6673ZM18.6444 30.514L29.3327 23.8407C29.7327 23.5845 29.9746 23.1423 29.9746 22.6673C29.9746 22.1924 29.7327 21.7501 29.3327 21.494L18.6077 14.8207C18.1853 14.5543 17.6517 14.538 17.2137 14.7778C16.7758 15.0178 16.5023 15.4763 16.4994 15.9757V29.359C16.4935 29.8705 16.772 30.343 17.2224 30.5855C17.6728 30.8281 18.2206 30.8005 18.6444 30.514Z" fill="white"/>
</svg>
