<svg width="44" height="45" viewBox="0 0 44 45" fill="none" xmlns="http://www.w3.org/2000/svg">
<path fill-rule="evenodd" clip-rule="evenodd" d="M3.66602 22.4998C3.66602 12.3746 11.8741 4.1665 21.9994 4.1665C26.8616 4.1665 31.5248 6.09805 34.963 9.53619C38.4011 12.9744 40.3327 17.6376 40.3327 22.4998C40.3327 32.6251 32.1246 40.8332 21.9994 40.8332C11.8741 40.8332 3.66602 32.6251 3.66602 22.4998ZM18.6444 30.3465L29.3327 23.6732C29.7327 23.417 29.9746 22.9748 29.9746 22.4998C29.9746 22.0249 29.7327 21.5826 29.3327 21.3265L18.6077 14.6532C18.1853 14.3869 17.6517 14.3705 17.2137 14.6104C16.7758 14.8503 16.5023 15.3088 16.4994 15.8082V29.1915C16.4935 29.703 16.772 30.1756 17.2224 30.418C17.6728 30.6606 18.2206 30.633 18.6444 30.3465Z" fill="white"/>
</svg>
