<svg width="44" height="44" viewBox="0 0 44 44" fill="none" xmlns="http://www.w3.org/2000/svg">
<path fill-rule="evenodd" clip-rule="evenodd" d="M3.66602 21.9998C3.66602 11.8746 11.8741 3.6665 21.9994 3.6665C26.8616 3.6665 31.5248 5.59805 34.963 9.03619C38.4011 12.4744 40.3327 17.1376 40.3327 21.9998C40.3327 32.1251 32.1246 40.3332 21.9994 40.3332C11.8741 40.3332 3.66602 32.1251 3.66602 21.9998ZM18.6444 29.8465L29.3327 23.1732C29.7327 22.917 29.9746 22.4748 29.9746 21.9998C29.9746 21.5249 29.7327 21.0826 29.3327 20.8265L18.6077 14.1532C18.1853 13.8869 17.6517 13.8705 17.2137 14.1104C16.7758 14.3503 16.5023 14.8088 16.4994 15.3082V28.6915C16.4935 29.203 16.772 29.6756 17.2224 29.918C17.6728 30.1606 18.2206 30.133 18.6444 29.8465Z" fill="white"/>
</svg>
