<svg width="44" height="45" viewBox="0 0 44 45" fill="none" xmlns="http://www.w3.org/2000/svg">
<path fill-rule="evenodd" clip-rule="evenodd" d="M3.66602 22.1673C3.66602 12.0421 11.8741 3.83398 21.9994 3.83398C26.8616 3.83398 31.5248 5.76553 34.963 9.20368C38.4011 12.6419 40.3327 17.305 40.3327 22.1673C40.3327 32.2925 32.1246 40.5007 21.9994 40.5007C11.8741 40.5007 3.66602 32.2925 3.66602 22.1673ZM18.6444 30.014L29.3327 23.3407C29.7327 23.0845 29.9746 22.6423 29.9746 22.1673C29.9746 21.6924 29.7327 21.2501 29.3327 20.994L18.6077 14.3207C18.1853 14.0543 17.6517 14.038 17.2137 14.2778C16.7758 14.5178 16.5023 14.9763 16.4994 15.4757V28.859C16.4935 29.3705 16.772 29.843 17.2224 30.0855C17.6728 30.3281 18.2206 30.3005 18.6444 30.014Z" fill="white"/>
</svg>
