<svg width="22" height="22" viewBox="0 0 22 22" fill="none" xmlns="http://www.w3.org/2000/svg">
<path d="M17.642 6.39697H4.35833C4.19652 6.39773 4.04052 6.4574 3.9195 6.5648C3.79847 6.67221 3.7207 6.82002 3.70073 6.9806L2.53347 17.5024C2.52309 17.594 2.53211 17.6869 2.55996 17.7748C2.5878 17.8628 2.63385 17.9439 2.6951 18.0129C2.75634 18.0818 2.83142 18.1372 2.91546 18.1753C2.99949 18.2134 3.0906 18.2334 3.18286 18.2339H18.8175C18.9098 18.2334 19.0008 18.2134 19.0849 18.1753C19.1689 18.1372 19.244 18.0818 19.3053 18.0129C19.3665 17.9439 19.4125 17.8628 19.4404 17.7748C19.4683 17.6869 19.4773 17.594 19.4669 17.5024L18.2996 6.9806C18.2796 6.82002 18.2019 6.67221 18.0809 6.5648C17.9599 6.4574 17.8039 6.39773 17.642 6.39697Z" stroke="white" stroke-width="1.43478" stroke-linecap="round" stroke-linejoin="round"/>
<path d="M7.05469 5.73911C7.05469 4.69266 7.47039 3.68906 8.21034 2.94911C8.95029 2.20916 9.95389 1.79346 11.0003 1.79346C12.0468 1.79346 13.0504 2.20916 13.7903 2.94911C14.5303 3.68906 14.946 4.69266 14.946 5.73911" stroke="white" stroke-width="1.43478" stroke-linecap="round" stroke-linejoin="round"/>
</svg>
