<svg width="100" height="25" viewBox="0 0 100 25" fill="none" xmlns="http://www.w3.org/2000/svg">
<g clip-path="url(#clip0_1_1372)">
<path d="M90.2073 4.512H93.4365V1.68354H95.7263V4.512H98.9555V6.68719H95.7263V9.51566H93.4365V6.68719H90.2073V4.512ZM91.0321 21.3784H99.1839V23.7828H88.1693V14.1186H98.9555V16.5237H91.0314V17.8062H97.5014V19.9813H91.0314L91.0321 21.3784ZM87.7796 10.5463H76.8788V0.882078H79.7416V8.14193H87.7796V10.5463ZM80.8744 17.4054C80.8744 16.8324 80.508 16.5237 79.6263 16.5237H74.7489V18.2872H79.627C80.508 18.2872 80.8752 17.9777 80.8752 17.4054H80.8744ZM78.9168 20.6339H74.7489V23.7828H71.8861V14.1186H79.5124C82.4321 14.1186 83.8518 15.55 83.8518 17.3704C83.8518 18.6762 83.062 19.6492 81.6423 20.1419L84.5511 23.7828H81.3445L78.9168 20.6339ZM64.3518 8.14193H72.5051V10.5463H61.489V0.882078H72.2759V3.28646H64.3518V4.56894H70.8212V6.74412H64.3518V8.14193ZM64.673 19.4317V14.1186H67.535V19.5463C67.535 22.5003 65.5657 24.012 61.5584 24.012C57.5504 24.012 55.5803 22.5011 55.5803 19.5463V14.1186H58.4431V19.4324C58.4431 20.8748 59.3365 21.493 61.5584 21.493C63.7796 21.493 64.673 20.8748 64.673 19.4317ZM53.1642 10.5463H50.5876L44.7482 0.882078H47.9766L51.9161 7.50033L55.8555 0.882078H59.0044L53.1642 10.5463ZM49.9234 17.1419C47.7248 16.3865 46.5343 16.1916 45.0912 16.1916C43.2708 16.1916 42.8701 16.4886 42.8701 16.9018C42.8701 17.1989 43.0993 17.3704 43.8547 17.439L48.0343 17.7945C50.9197 18.0354 51.9277 19.2142 51.9277 20.7828C51.9277 22.6376 49.9124 24.012 45.8241 24.012C43.9693 24.012 41.4956 23.623 39.3204 22.9011L40.8314 20.5427C42.9847 21.3324 45.046 21.6879 46.5452 21.6879C48.5153 21.6879 48.9504 21.3784 48.9504 20.9894C48.9504 20.6799 48.7328 20.4397 47.8737 20.3595L43.8088 19.9813C41.0496 19.7295 40.0073 18.6879 40.0073 17.1193C40.0073 15.4587 41.5766 13.8901 45.6525 13.8901C47.427 13.8901 49.2934 14.2332 51.3204 14.9777L49.9234 17.1419ZM40.2139 6.61784L38.4963 3.64193L36.7788 6.61784H40.2139ZM32.3817 23.7821H35.2445V14.1178H32.3817V23.7821ZM41.5423 8.90836H35.4511L34.5007 10.5456H31.4088L37.2482 0.881348H39.8248L45.6642 10.5456H42.4927L41.5423 8.90836ZM25.981 4.16821C25.981 3.59595 25.6146 3.28646 24.7328 3.28646H19.8555V5.04996H24.7328C25.6146 5.04996 25.981 4.74047 25.981 4.16821ZM19.8555 21.3784H28.0073V23.7828H16.9927V14.1186H27.7788V16.5237H19.8555V17.8062H26.3248V19.9813H19.8555V21.3784ZM24.0234 7.39741H19.8555V10.5463H16.9927V0.882078H24.6182C27.538 0.882078 28.9584 2.31273 28.9584 4.1339C28.9584 5.43901 28.1679 6.41273 26.7482 6.90471L29.6569 10.5463H26.4504L24.0234 7.39741ZM13.2131 23.7828H2.31387V14.1186H5.17518V21.3784H13.2131V23.7828ZM0 0.882078H13.2139V3.28646H8.03868V10.5463H5.17518V3.28646H0V0.882078Z" fill="black"/>
</g>
<defs>
<clipPath id="clip0_1_1372">
<rect width="100" height="23.3577" fill="white" transform="translate(0 0.654297)"/>
</clipPath>
</defs>
</svg>
