<svg width="135" height="55" viewBox="0 0 135 55" fill="none" xmlns="http://www.w3.org/2000/svg">
<path d="M132.06 39.5243C132.445 39.5052 132.826 39.6024 133.155 39.8035C133.484 40.0046 133.746 40.3003 133.906 40.6524C134.066 41.0045 134.118 41.3969 134.055 41.7789C133.991 42.161 133.815 42.5151 133.55 42.7955C133.284 43.076 132.941 43.27 132.565 43.3524C132.189 43.4348 131.797 43.402 131.44 43.258C131.082 43.114 130.776 42.8656 130.56 42.5447C130.345 42.2239 130.23 41.8454 130.23 41.4581C130.218 40.9575 130.404 40.4727 130.747 40.1101C131.091 39.7476 131.563 39.5369 132.06 39.5243ZM132.06 39.2481C131.626 39.2481 131.201 39.3777 130.84 39.6205C130.479 39.8634 130.197 40.2085 130.031 40.6123C129.865 41.0162 129.821 41.4605 129.906 41.8892C129.991 42.3179 130.2 42.7117 130.507 43.0208C130.814 43.3298 131.206 43.5403 131.632 43.6256C132.058 43.7108 132.5 43.6671 132.901 43.4998C133.302 43.3326 133.645 43.0493 133.887 42.6859C134.128 42.3224 134.257 41.8952 134.257 41.4581C134.257 40.8719 134.025 40.3098 133.613 39.8954C133.202 39.4809 132.643 39.2481 132.06 39.2481ZM132.379 41.5059C132.512 41.4791 132.633 41.4071 132.72 41.3019C132.807 41.1967 132.856 41.0646 132.858 40.9277C132.858 40.5225 132.511 40.3531 132.013 40.3531H131.376V42.5631H131.742V41.5686H132.035L132.496 42.3052C132.642 42.5373 132.668 42.552 132.862 42.552H133.049V42.5299L132.379 41.5059ZM131.983 41.4691H131.735V40.4525H131.958C132.324 40.4525 132.474 40.5925 132.474 40.9571C132.474 41.3218 132.371 41.4507 131.983 41.4507V41.4691ZM29.2783 17.1299H37.3868V43.6496H29.2783V17.1299ZM81.7877 40.9977C79.4045 40.9977 78.2697 39.5575 78.2697 37.0971V19.3399H84.7089V17.1299H78.2697V10.5H70.4797L70.1136 17.1299H66.6579V19.3399H70.1136V36.8098C70.1136 41.3107 72.6761 44.2463 77.9256 44.2463C81.8609 44.2463 84.1891 42.6294 85.1409 40.4709L84.7748 40.0511C83.9083 40.6858 82.8593 41.0182 81.7877 40.9977Z" fill="black"/>
<path d="M98.7296 16.5295C90.083 16.5295 84.5956 22.5885 84.5956 30.526C84.5956 38.3825 89.7206 44.261 98.5502 44.261C107.556 44.261 112.681 38.2057 112.681 30.2829C112.681 22.4117 107.314 16.5295 98.7296 16.5295ZM98.671 42.3309C94.3148 42.3309 93.7144 38.7876 93.7144 30.316C93.7144 21.9771 94.3075 18.3748 98.6015 18.3748C102.954 18.3748 103.551 21.9771 103.551 30.4339C103.558 38.7287 103.024 42.3309 98.671 42.3309ZM124.029 21.6898L123.849 17.1299H115.979V43.6496H124.098V22.4117C124.585 22.2573 125.092 22.1754 125.603 22.1686C127.049 22.1686 128.733 22.769 133.788 25.1705L134.268 24.99V17.5498C133.334 16.8691 132.207 16.5111 131.054 16.5295C128.78 16.5295 126.134 17.9696 124.029 21.6898ZM56.1371 40.4709L57.0706 43.6496H64.0077V23.2515C64.0077 18.7505 60.4897 16.5295 54.7058 16.5295C50.8291 16.5295 46.0592 17.6087 42.7792 18.6916L42.4131 23.3104L42.8927 23.5498C49.0939 19.3509 50.9462 18.3932 52.8498 18.3932C55.0462 18.3932 55.9504 19.535 55.9504 21.9329V27.4578C46.7694 29.3768 41.1611 30.7728 41.1611 37.0565C41.1611 41.377 44.0238 44.2573 48.618 44.2573C52.1433 44.2499 54.7644 42.5704 56.1371 40.4709ZM49.1598 35.55C49.1598 31.4689 50.5326 30.4486 55.9578 29.3105V39.5243C54.9777 40.3094 53.7502 40.7145 52.4984 40.6661C50.1738 40.6514 49.1598 39.3291 49.1598 35.55Z" fill="black"/>
<path d="M20.9576 26.5225C23.687 26.5225 25.8996 24.2963 25.8996 21.5501C25.8996 18.8039 23.687 16.5776 20.9576 16.5776C18.2282 16.5776 16.0156 18.8039 16.0156 21.5501C16.0156 24.2963 18.2282 26.5225 20.9576 26.5225Z" fill="black"/>
<path d="M15.5176 43.6496L18.0985 37.8189L8.943 17.1299H0.274414L12.0107 43.6496H15.5176Z" fill="black"/>
</svg>
