<svg width="135" height="56" viewBox="0 0 135 56" fill="none" xmlns="http://www.w3.org/2000/svg">
<path d="M132.06 39.6908C132.445 39.6717 132.826 39.7689 133.155 39.97C133.484 40.1711 133.746 40.4668 133.906 40.8189C134.066 41.171 134.118 41.5634 134.055 41.9454C133.991 42.3275 133.815 42.6816 133.55 42.962C133.284 43.2425 132.941 43.4365 132.565 43.5189C132.189 43.6013 131.797 43.5685 131.44 43.4245C131.082 43.2805 130.776 43.0321 130.56 42.7112C130.345 42.3904 130.23 42.0119 130.23 41.6246C130.218 41.124 130.404 40.6392 130.747 40.2767C131.091 39.9141 131.563 39.7034 132.06 39.6908ZM132.06 39.4146C131.626 39.4146 131.201 39.5442 130.84 39.787C130.479 40.0299 130.197 40.375 130.031 40.7789C129.865 41.1827 129.821 41.627 129.906 42.0557C129.991 42.4844 130.2 42.8782 130.507 43.1873C130.814 43.4963 131.206 43.7068 131.632 43.7921C132.058 43.8774 132.5 43.8336 132.901 43.6663C133.302 43.4991 133.645 43.2158 133.887 42.8524C134.128 42.4889 134.257 42.0617 134.257 41.6246C134.257 41.0385 134.025 40.4763 133.613 40.0619C133.202 39.6474 132.643 39.4146 132.06 39.4146ZM132.379 41.6725C132.512 41.6456 132.633 41.5736 132.72 41.4684C132.807 41.3632 132.856 41.2312 132.858 41.0942C132.858 40.689 132.511 40.5196 132.013 40.5196H131.376V42.7296H131.742V41.7351H132.035L132.496 42.4717C132.642 42.7038 132.668 42.7185 132.862 42.7185H133.049V42.6964L132.379 41.6725ZM131.983 41.6356H131.735V40.619H131.958C132.324 40.619 132.474 40.759 132.474 41.1236C132.474 41.4883 132.371 41.6172 131.983 41.6172V41.6356ZM29.2783 17.2964H37.3868V43.8161H29.2783V17.2964ZM81.7877 41.1642C79.4045 41.1642 78.2697 39.724 78.2697 37.2636V19.5064H84.7089V17.2964H78.2697V10.6665H70.4797L70.1136 17.2964H66.6579V19.5064H70.1136V36.9763C70.1136 41.4772 72.6761 44.4128 77.9256 44.4128C81.8609 44.4128 84.1891 42.7959 85.1409 40.6374L84.7748 40.2176C83.9083 40.8523 82.8593 41.1847 81.7877 41.1642Z" fill="black"/>
<path d="M98.7296 16.696C90.083 16.696 84.5956 22.755 84.5956 30.6925C84.5956 38.549 89.7206 44.4275 98.5502 44.4275C107.556 44.4275 112.681 38.3722 112.681 30.4494C112.681 22.5782 107.314 16.696 98.7296 16.696ZM98.671 42.4974C94.3148 42.4974 93.7144 38.9541 93.7144 30.4825C93.7144 22.1436 94.3075 18.5413 98.6015 18.5413C102.954 18.5413 103.551 22.1436 103.551 30.6004C103.558 38.8952 103.024 42.4974 98.671 42.4974ZM124.029 21.8563L123.849 17.2964H115.979V43.8161H124.098V22.5782C124.585 22.4238 125.092 22.3419 125.603 22.3351C127.049 22.3351 128.733 22.9355 133.788 25.337L134.268 25.1565V17.7163C133.334 17.0356 132.207 16.6776 131.054 16.696C128.78 16.696 126.134 18.1362 124.029 21.8563ZM56.1371 40.6374L57.0706 43.8161H64.0077V23.418C64.0077 18.917 60.4897 16.696 54.7058 16.696C50.8291 16.696 46.0592 17.7752 42.7792 18.8581L42.4131 23.4769L42.8927 23.7163C49.0939 19.5174 50.9462 18.5597 52.8498 18.5597C55.0462 18.5597 55.9504 19.7016 55.9504 22.0994V27.6243C46.7694 29.5433 41.1611 30.9393 41.1611 37.223C41.1611 41.5435 44.0238 44.4238 48.618 44.4238C52.1433 44.4164 54.7644 42.7369 56.1371 40.6374ZM49.1598 35.7165C49.1598 31.6354 50.5326 30.6151 55.9578 29.477V39.6908C54.9777 40.4759 53.7502 40.881 52.4984 40.8326C50.1738 40.8179 49.1598 39.4956 49.1598 35.7165Z" fill="black"/>
<path d="M20.9576 26.689C23.687 26.689 25.8996 24.4628 25.8996 21.7166C25.8996 18.9704 23.687 16.7441 20.9576 16.7441C18.2282 16.7441 16.0156 18.9704 16.0156 21.7166C16.0156 24.4628 18.2282 26.689 20.9576 26.689Z" fill="black"/>
<path d="M15.5176 43.8161L18.0985 37.9854L8.943 17.2964H0.274414L12.0107 43.8161H15.5176Z" fill="black"/>
</svg>
