<svg width="44" height="44" viewBox="0 0 44 44" fill="none" xmlns="http://www.w3.org/2000/svg">
<path d="M28.4813 23.047L23.2957 28.2335C22.9519 28.5772 22.4857 28.7702 21.9995 28.7702C21.5134 28.7702 21.0472 28.5772 20.7034 28.2335L15.5178 23.0479C15.0891 22.623 14.7486 22.1175 14.5158 21.5607C14.283 21.0038 14.1625 20.4064 14.1611 19.8028C14.1598 19.1993 14.2777 18.6014 14.5081 18.0435C14.7385 17.4856 15.0768 16.9787 15.5036 16.5519C15.9304 16.1251 16.4372 15.7868 16.9951 15.5564C17.553 15.3261 18.1509 15.2082 18.7545 15.2095C19.3581 15.2108 19.9555 15.3313 20.5123 15.5641C21.0692 15.797 21.5746 16.1375 21.9995 16.5661C22.8626 15.7245 24.0226 15.2568 25.2281 15.2644C26.4336 15.2719 27.5875 15.7541 28.44 16.6065C29.2925 17.4588 29.7749 18.6128 29.7826 19.8182C29.7903 21.0237 29.3228 22.1837 28.4813 23.047Z" stroke="white" stroke-width="1.375" stroke-linecap="round" stroke-linejoin="round"/>
</svg>
