<svg width="44" height="44" viewBox="0 0 44 44" fill="none" xmlns="http://www.w3.org/2000/svg">
<path d="M28.4803 23.047L23.2947 28.2335C22.9509 28.5772 22.4847 28.7702 21.9986 28.7702C21.5124 28.7702 21.0462 28.5772 20.7024 28.2335L15.5168 23.0479C15.0881 22.623 14.7476 22.1175 14.5148 21.5607C14.282 21.0038 14.1615 20.4064 14.1602 19.8028C14.1588 19.1993 14.2768 18.6014 14.5071 18.0435C14.7375 17.4856 15.0758 16.9787 15.5026 16.5519C15.9294 16.1251 16.4363 15.7868 16.9942 15.5564C17.552 15.3261 18.1499 15.2082 18.7535 15.2095C19.3571 15.2108 19.9545 15.3313 20.5114 15.5641C21.0682 15.797 21.5736 16.1375 21.9986 16.5661C22.8617 15.7245 24.0216 15.2568 25.2271 15.2644C26.4326 15.2719 27.5866 15.7541 28.439 16.6065C29.2915 17.4588 29.7739 18.6128 29.7816 19.8182C29.7893 21.0237 29.3218 22.1837 28.4803 23.047Z" stroke="white" stroke-width="1.375" stroke-linecap="round" stroke-linejoin="round"/>
</svg>
