<svg width="22" height="22" viewBox="0 0 22 22" fill="none" xmlns="http://www.w3.org/2000/svg">
<path d="M17.6418 6.39673H4.35812C4.19631 6.39748 4.04031 6.45715 3.91929 6.56456C3.79826 6.67197 3.72048 6.81978 3.70051 6.98036L2.53326 17.5021C2.52288 17.5938 2.5319 17.6867 2.55974 17.7746C2.58759 17.8626 2.63364 17.9437 2.69488 18.0126C2.75613 18.0816 2.83121 18.137 2.91525 18.1751C2.99928 18.2131 3.09038 18.2331 3.18265 18.2337H18.8173C18.9096 18.2331 19.0006 18.2131 19.0847 18.1751C19.1687 18.137 19.2438 18.0816 19.3051 18.0126C19.3663 17.9437 19.4123 17.8626 19.4402 17.7746C19.4681 17.6867 19.4771 17.5938 19.4666 17.5021L18.2994 6.98036C18.2794 6.81978 18.2016 6.67197 18.0806 6.56456C17.9596 6.45715 17.8036 6.39748 17.6418 6.39673Z" stroke="white" stroke-width="1.43478" stroke-linecap="round" stroke-linejoin="round"/>
<path d="M7.05435 5.73914C7.05435 4.69269 7.47006 3.68909 8.21 2.94914C8.94996 2.20919 9.95355 1.79349 11 1.79349C12.0464 1.79349 13.05 2.20919 13.79 2.94914C14.53 3.68909 14.9457 4.69269 14.9457 5.73914" stroke="white" stroke-width="1.43478" stroke-linecap="round" stroke-linejoin="round"/>
</svg>
