<svg width="80" height="80" viewBox="0 0 80 80" fill="none" xmlns="http://www.w3.org/2000/svg">
<path fill-rule="evenodd" clip-rule="evenodd" d="M39.9997 73.3335C58.4097 73.3335 73.333 58.4102 73.333 40.0002C73.333 21.5902 58.4097 6.66683 39.9997 6.66683C21.5897 6.66683 6.66635 21.5902 6.66635 40.0002C6.66634 58.4102 21.5897 73.3335 39.9997 73.3335ZM39.9997 70.0002C39.9997 62.0437 43.1604 54.413 48.7865 48.787C54.4126 43.1609 62.0432 40.0002 69.9997 40.0002C62.0432 40.0002 54.4126 36.8395 48.7865 31.2134C43.1604 25.5873 39.9997 17.9567 39.9997 10.0002C39.9997 17.9567 36.839 25.5873 31.2129 31.2134C25.5868 36.8395 17.9562 40.0002 9.99968 40.0002C17.9562 40.0002 25.5868 43.1609 31.2129 48.787C36.839 54.413 39.9997 62.0437 39.9997 70.0002Z" fill="white"/>
</svg>
