<svg width="40" height="40" viewBox="0 0 40 40" fill="none" xmlns="http://www.w3.org/2000/svg">
<path d="M37.6 20.4167C37.6 19.1167 37.4833 17.8667 37.2667 16.6667H20V23.7583H29.8667C29.4417 26.05 28.15 27.9917 26.2083 29.2917V33.8917H32.1333C35.6 30.7 37.6 26 37.6 20.4167Z" fill="#4285F4"/>
<path d="M19.9995 38.3333C24.9495 38.3333 29.0995 36.6917 32.1329 33.8917L26.2079 29.2917C24.5662 30.3917 22.4662 31.0417 19.9995 31.0417C15.2245 31.0417 11.1829 27.8167 9.74121 23.4833H3.61621V28.2333C6.63288 34.225 12.8329 38.3333 19.9995 38.3333Z" fill="#34A853"/>
<path d="M9.74199 23.4833C9.37533 22.3833 9.16699 21.2083 9.16699 20C9.16699 18.7917 9.37533 17.6167 9.74199 16.5167V11.7667H3.61699C2.33366 14.3214 1.66586 17.141 1.66699 20C1.66699 22.9583 2.37533 25.7583 3.61699 28.2333L9.74199 23.4833Z" fill="#FBBC05"/>
<path d="M19.9995 8.95832C22.6912 8.95832 25.1079 9.88332 27.0079 11.7L32.2662 6.44166C29.0912 3.48332 24.9412 1.66666 19.9995 1.66666C12.8329 1.66666 6.63288 5.77499 3.61621 11.7667L9.74121 16.5167C11.1829 12.1833 15.2245 8.95832 19.9995 8.95832Z" fill="#EA4335"/>
</svg>
