<svg width="18" height="16" viewBox="0 0 18 16" fill="none" xmlns="http://www.w3.org/2000/svg">
<path d="M15.4817 9.04684L10.2962 14.2333C9.95236 14.577 9.48613 14.7701 8.99999 14.7701C8.51386 14.7701 8.04763 14.577 7.70383 14.2333L2.51824 9.04775C2.08958 8.62283 1.74907 8.11742 1.51626 7.56055C1.28345 7.00367 1.16292 6.4063 1.1616 5.80272C1.16028 5.19914 1.27819 4.60124 1.50856 4.04336C1.73893 3.48547 2.07722 2.97857 2.50402 2.55178C2.93081 2.12498 3.43771 1.78669 3.9956 1.55632C4.55348 1.32595 5.15138 1.20804 5.75496 1.20936C6.35854 1.21068 6.95591 1.33121 7.51279 1.56402C8.06966 1.79683 8.57507 2.13734 8.99999 2.566C9.8631 1.72438 11.023 1.2567 12.2285 1.26425C13.434 1.2718 14.588 1.75399 15.4405 2.60636C16.293 3.45872 16.7753 4.61264 16.783 5.81813C16.7908 7.02362 16.3232 8.18361 15.4817 9.04684Z" stroke="white" stroke-width="1.375" stroke-linecap="round" stroke-linejoin="round"/>
</svg>
