<svg width="33" height="33" viewBox="0 0 33 33" fill="none" xmlns="http://www.w3.org/2000/svg">
<path fill-rule="evenodd" clip-rule="evenodd" d="M23.5 0.674683H9.5C4.66752 0.674683 0.75 4.5922 0.75 9.42468V23.4247C0.75 28.2571 4.66752 32.1747 9.5 32.1747H23.5C28.3325 32.1747 32.25 28.2571 32.25 23.4247V9.42468C32.25 4.5922 28.3325 0.674683 23.5 0.674683ZM29.1875 23.4247C29.1779 26.5617 26.6371 29.1026 23.5 29.1122H9.5C6.36286 29.1026 3.82211 26.5617 3.8125 23.4247V9.42468C3.82211 6.28755 6.36286 3.74679 9.5 3.73718H23.5C26.6371 3.74679 29.1779 6.28755 29.1875 9.42468V23.4247ZM24.8125 9.86218C25.779 9.86218 26.5625 9.07867 26.5625 8.11218C26.5625 7.14569 25.779 6.36218 24.8125 6.36218C23.846 6.36218 23.0625 7.14569 23.0625 8.11218C23.0625 9.07867 23.846 9.86218 24.8125 9.86218ZM16.5 8.54968C12.1508 8.54968 8.625 12.0754 8.625 16.4247C8.625 20.774 12.1508 24.2997 16.5 24.2997C20.8493 24.2997 24.375 20.774 24.375 16.4247C24.3797 14.3347 23.5515 12.3289 22.0736 10.8511C20.5957 9.37321 18.59 8.54503 16.5 8.54968ZM11.6875 16.4247C11.6875 19.0826 13.8421 21.2372 16.5 21.2372C19.1579 21.2372 21.3125 19.0826 21.3125 16.4247C21.3125 13.7668 19.1579 11.6122 16.5 11.6122C13.8421 11.6122 11.6875 13.7668 11.6875 16.4247Z" fill="white"/>
</svg>
