<svg width="40" height="40" viewBox="0 0 40 40" fill="none" xmlns="http://www.w3.org/2000/svg">
<g clip-path="url(#clip0_588_3770)">
<path d="M34.4456 33.8022H28.509V24.5967C28.509 22.4015 28.4694 19.5757 25.4213 19.5757C22.3293 19.5757 21.8562 21.9674 21.8562 24.4368V33.8016H15.9195V14.8713H21.6187V17.4583H21.6985C22.2688 16.4927 23.093 15.6984 24.0832 15.1599C25.0735 14.6214 26.1927 14.3589 27.3216 14.4004C33.3387 14.4004 34.4481 18.3192 34.4481 23.4173L34.4456 33.8022ZM9.22093 12.2836C8.53954 12.2838 7.87341 12.0838 7.30679 11.7091C6.74018 11.3344 6.29854 10.8017 6.03768 10.1784C5.77681 9.55514 5.70844 8.86927 5.84125 8.20754C5.97406 7.54581 6.30208 6.93794 6.78381 6.46079C7.26553 5.98364 7.87934 5.65864 8.5476 5.5269C9.21587 5.39516 9.90857 5.46259 10.5381 5.72066C11.1677 5.97874 11.7058 6.41586 12.0845 6.97676C12.4631 7.53766 12.6653 8.19715 12.6654 8.87182C12.6655 9.31979 12.5765 9.76338 12.4034 10.1773C12.2304 10.5912 11.9767 10.9673 11.6568 11.2841C11.337 11.6009 10.9572 11.8522 10.5393 12.0237C10.1213 12.1952 9.67335 12.2836 9.22093 12.2836ZM12.1893 33.8022H6.2464V14.8713H12.1893V33.8022ZM37.4053 0.00245871H3.26324C2.48831 -0.00620023 1.74157 0.290121 1.18718 0.826306C0.63279 1.36249 0.316098 2.09467 0.306641 2.86196V36.808C0.315775 37.5757 0.63228 38.3084 1.18665 38.8451C1.74102 39.3819 2.48792 39.6788 3.26324 39.6706H37.4053C38.1822 39.6802 38.9311 39.3842 39.4877 38.8475C40.0443 38.3107 40.3629 37.5772 40.3736 36.808V2.85951C40.3626 2.0907 40.0437 1.35769 39.4871 0.821516C38.9306 0.285343 38.1818 -0.0101312 37.4053 8.46779e-06" fill="#0A66C2"/>
</g>
<defs>
<clipPath id="clip0_588_3770">
<rect width="40" height="40" fill="white"/>
</clipPath>
</defs>
</svg>
