<svg width="480" height="24" viewBox="0 0 480 24" fill="none" xmlns="http://www.w3.org/2000/svg">
<line x1="12.5" y1="11.5" x2="216.5" y2="11.5" stroke="black" stroke-opacity="0.4"/>
<path d="M233.672 12.8672V12.6875C233.672 12.0781 233.76 11.513 233.938 10.9922C234.115 10.4661 234.37 10.0104 234.703 9.625C235.036 9.23438 235.44 8.93229 235.914 8.71875C236.388 8.5 236.919 8.39062 237.508 8.39062C238.102 8.39062 238.635 8.5 239.109 8.71875C239.589 8.93229 239.995 9.23438 240.328 9.625C240.667 10.0104 240.924 10.4661 241.102 10.9922C241.279 11.513 241.367 12.0781 241.367 12.6875V12.8672C241.367 13.4766 241.279 14.0417 241.102 14.5625C240.924 15.0833 240.667 15.5391 240.328 15.9297C239.995 16.3151 239.591 16.6172 239.117 16.8359C238.648 17.0495 238.117 17.1562 237.523 17.1562C236.93 17.1562 236.396 17.0495 235.922 16.8359C235.448 16.6172 235.042 16.3151 234.703 15.9297C234.37 15.5391 234.115 15.0833 233.938 14.5625C233.76 14.0417 233.672 13.4766 233.672 12.8672ZM235.117 12.6875V12.8672C235.117 13.2891 235.167 13.6875 235.266 14.0625C235.365 14.4323 235.513 14.7604 235.711 15.0469C235.914 15.3333 236.167 15.5599 236.469 15.7266C236.771 15.888 237.122 15.9688 237.523 15.9688C237.919 15.9688 238.266 15.888 238.562 15.7266C238.865 15.5599 239.115 15.3333 239.312 15.0469C239.51 14.7604 239.659 14.4323 239.758 14.0625C239.862 13.6875 239.914 13.2891 239.914 12.8672V12.6875C239.914 12.2708 239.862 11.8776 239.758 11.5078C239.659 11.1328 239.508 10.8021 239.305 10.5156C239.107 10.224 238.857 9.99479 238.555 9.82812C238.258 9.66146 237.909 9.57812 237.508 9.57812C237.112 9.57812 236.763 9.66146 236.461 9.82812C236.164 9.99479 235.914 10.224 235.711 10.5156C235.513 10.8021 235.365 11.1328 235.266 11.5078C235.167 11.8776 235.117 12.2708 235.117 12.6875ZM244.625 9.875V17H243.18V8.54688H244.586L244.625 9.875ZM247.266 8.5L247.258 9.84375C247.138 9.81771 247.023 9.80208 246.914 9.79688C246.81 9.78646 246.69 9.78125 246.555 9.78125C246.221 9.78125 245.927 9.83333 245.672 9.9375C245.417 10.0417 245.201 10.1875 245.023 10.375C244.846 10.5625 244.706 10.7865 244.602 11.0469C244.503 11.3021 244.438 11.5833 244.406 11.8906L244 12.125C244 11.6146 244.049 11.1354 244.148 10.6875C244.253 10.2396 244.411 9.84375 244.625 9.5C244.839 9.15104 245.109 8.88021 245.438 8.6875C245.771 8.48958 246.167 8.39062 246.625 8.39062C246.729 8.39062 246.849 8.40365 246.984 8.42969C247.12 8.45052 247.214 8.47396 247.266 8.5Z" fill="black" fill-opacity="0.4"/>
<line x1="263.5" y1="11.5" x2="467.5" y2="11.5" stroke="black" stroke-opacity="0.4"/>
</svg>
