<svg width="38" height="42" viewBox="0 0 38 42" fill="none" xmlns="http://www.w3.org/2000/svg">
<g clip-path="url(#clip0_948_4241)">
<path d="M14.8803 16.5379V14.8986C14.3158 14.8217 13.7429 14.7743 13.1583 14.7743C6.11261 14.7743 0.379883 20.4874 0.379883 27.5101C0.379883 31.8189 2.53957 35.6315 5.83565 37.9366C3.70873 35.661 2.40426 32.6133 2.40426 29.2652C2.40426 22.3437 7.97419 16.699 14.8814 16.5379H14.8803Z" fill="#25F4EE"/>
<path d="M15.1818 35.0816C18.3256 35.0816 20.8902 32.5891 21.0065 29.4844L21.0181 1.75619H26.1007C25.995 1.18624 25.9368 0.600497 25.9368 0H18.9948L18.9831 27.7282C18.8669 30.8329 16.3023 33.3255 13.1584 33.3255C12.1817 33.3255 11.2609 33.0821 10.4512 32.6575C11.5115 34.123 13.2346 35.0816 15.1818 35.0816Z" fill="#25F4EE"/>
<path d="M35.5952 11.1671V9.62583C33.6564 9.62583 31.8498 9.05168 30.335 8.06665C31.6838 9.61003 33.5158 10.7236 35.5952 11.1671Z" fill="#25F4EE"/>
<path d="M30.3364 8.06666C28.8585 6.37579 27.961 4.1687 27.961 1.75513H26.1016C26.591 4.39099 28.1608 6.65286 30.3364 8.06666Z" fill="#FE2C55"/>
<path d="M13.1586 21.6937C9.94074 21.6937 7.32227 24.3032 7.32227 27.5101C7.32227 29.7435 8.59397 31.6841 10.4513 32.6575C9.75891 31.7009 9.34664 30.5315 9.34664 29.2652C9.34664 26.0584 11.9651 23.4488 15.183 23.4488C15.7834 23.4488 16.3595 23.5479 16.905 23.7175V16.6537C16.3405 16.5768 15.7675 16.5294 15.183 16.5294C15.0815 16.5294 14.9821 16.5347 14.8817 16.5368V21.9613C14.3362 21.7917 13.7601 21.6926 13.1596 21.6926L13.1586 21.6937Z" fill="#FE2C55"/>
<path d="M35.5959 11.1671V16.5442C31.9964 16.5442 28.6602 15.3969 25.937 13.449V27.5101C25.937 34.5328 20.2043 40.2448 13.1586 40.2448C10.4355 40.2448 7.91113 39.3894 5.83496 37.9366C8.16907 40.4345 11.4947 42 15.182 42C22.2287 42 27.9604 36.2868 27.9604 29.2652V15.2052C30.6835 17.1531 34.0197 18.3004 37.6192 18.3004V11.381C36.9247 11.381 36.2481 11.3062 35.5959 11.1671Z" fill="#FE2C55"/>
<path d="M25.9368 27.5101V13.449C28.6599 15.3969 31.9962 16.5442 35.5956 16.5442V11.1671C33.5163 10.7236 31.6843 9.6111 30.3354 8.06666C28.1599 6.65286 26.5901 4.39204 26.1006 1.75513H21.018L21.0064 29.4833C20.8901 32.588 18.3256 35.0806 15.1817 35.0806C13.2345 35.0806 11.5114 34.1219 10.4511 32.6565C8.59378 31.682 7.32207 29.7414 7.32207 27.5091C7.32207 24.3022 9.94054 21.6927 13.1584 21.6927C13.7588 21.6927 14.335 21.7917 14.8804 21.9613V16.5368C7.97325 16.698 2.40332 22.3427 2.40332 29.2642C2.40332 32.6122 3.7078 35.66 5.83471 37.9356C7.90982 39.3873 10.4353 40.2438 13.1584 40.2438C20.2041 40.2438 25.9368 34.5307 25.9368 27.5091V27.5101Z" fill="white"/>
</g>
<defs>
<clipPath id="clip0_948_4241">
<rect width="37.24" height="42" fill="white" transform="translate(0.379883)"/>
</clipPath>
</defs>
</svg>
