<svg width="36" height="26" viewBox="0 0 36 26" fill="none" xmlns="http://www.w3.org/2000/svg">
<path d="M35.2878 4.60526C35.0885 3.86572 34.699 3.19127 34.158 2.64906C33.617 2.10684 32.9434 1.71577 32.2043 1.51476C29.4638 0.762263 18.5001 0.750013 18.5001 0.750013C18.5001 0.750013 7.53809 0.737763 4.79584 1.45701C4.05721 1.66727 3.38503 2.06387 2.84383 2.60875C2.30263 3.15362 1.91059 3.82847 1.70534 4.56851C0.982589 7.30901 0.975589 12.993 0.975589 12.993C0.975589 12.993 0.968589 18.705 1.68609 21.4175C2.08859 22.9173 3.26984 24.102 4.77134 24.5063C7.53984 25.2588 18.4738 25.271 18.4738 25.271C18.4738 25.271 29.4376 25.2833 32.1781 24.5658C32.9175 24.3651 33.5916 23.9749 34.134 23.4338C34.6763 22.8927 35.068 22.2194 35.2703 21.4805C35.9948 18.7418 36.0001 13.0595 36.0001 13.0595C36.0001 13.0595 36.0351 7.34576 35.2878 4.60526ZM14.9931 18.2588L15.0018 7.75876L24.1141 13.0175L14.9931 18.2588Z" fill="white"/>
</svg>
